<?xml version="1.0" standalone="no"?>
<!DOCTYPE svg PUBLIC "-//W3C//DTD SVG 1.1//EN" "http://www.w3.org/Graphics/SVG/1.1/DTD/svg11.dtd" >
<svg>
<metadata>
Created by FontForge 20110222 at Mon Mar  7 08:09:03 2011
 By www-data
Copyright (c) 2001, Frantisek Storm,www.stormtype.com. All rights reserved.
</metadata>
<defs>
<font id="LidoSTFCE-Italic" horiz-adv-x="511" >
  <font-face 
    font-family="Lido STF CE"
    font-weight="400"
    font-style="italic"
    font-stretch="normal"
    units-per-em="1000"
    panose-1="2 0 5 3 8 0 0 9 0 4"
    ascent="800"
    descent="-200"
    x-height="468"
    cap-height="678"
    bbox="-139 -219 1081 847"
    underline-thickness="50"
    underline-position="-125"
    slope="-12"
    unicode-range="U+0020-2122"
  />
    <missing-glyph />
    <glyph glyph-name="space" unicode=" " horiz-adv-x="180" 
 />
    <glyph glyph-name="space" unicode="&#xa0;" horiz-adv-x="180" 
 />
    <glyph glyph-name="exclam" unicode="!" horiz-adv-x="340" 
d="M342 612q8 21 6.5 36.5t-9.5 25.5t-20 14.5t-25 4.5t-27 -4.5t-27 -14t-22 -25t-12 -37.5l-52 -424h27zM140 121q-26 0 -45 -18.5t-19 -44.5q0 -27 19 -45.5t45 -18.5t45 18.5t19 45.5q0 26 -19 44.5t-45 18.5z" />
    <glyph glyph-name="quotedbl" unicode="&#x22;" horiz-adv-x="417" 
d="M182 402l64 147q16 36 24 55.5t10 29.5q8 30 -5.5 45t-33.5 15t-41 -15t-29 -46q-6 -22 -9 -83l-8 -148h28zM363 402l64 147q16 36 24 55.5t10 29.5q8 30 -5.5 45t-33.5 15t-41 -15t-29 -46q-6 -22 -9 -83l-8 -148h28z" />
    <glyph glyph-name="numbersign" unicode="#" horiz-adv-x="526" 
d="M250 426h157l-78 -169h-156zM57 0l97 214h156l-95 -214h54l96 214h116l11 43h-108l77 169h109l11 42h-102l104 226h-54l-105 -226h-155l102 226h-54l-103 -226h-119l-11 -42h110l-76 -169h-112l-11 -43h104l-96 -214h54z" />
    <glyph glyph-name="dollar" unicode="$" horiz-adv-x="516" 
d="M186 13l-20 -75h40l17 72q51 0 95.5 17t78 44.5t52.5 63.5t19 75q0 24 -7 48.5t-24.5 47t-46 43.5t-70.5 39l57 241q44 -6 59.5 -26t15.5 -50q0 -10 -1 -15.5t-2 -10l-2 -9t-1 -12.5q0 -16 9.5 -22.5t23.5 -6.5q29 0 45.5 21t16.5 50q0 19 -8.5 38.5t-26.5 36t-47.5 28.5
t-71.5 15l19 76h-40l-18 -74q-45 -1 -83 -19t-66 -45.5t-43.5 -63t-15.5 -72.5q0 -53 27.5 -90.5t90.5 -63.5l-64 -262q-41 2 -58 24t-17 50q0 17 3.5 29t3.5 27q0 17 -11 25.5t-25 8.5q-29 0 -45.5 -23t-16.5 -54q0 -21 8.5 -42.5t27.5 -39.5t49 -30t73 -14zM295 299
q48 -19 68 -44.5t20 -67.5q0 -36 -13.5 -62t-35 -42.5t-48.5 -24.5t-53 -8zM282 404q-32 14 -50.5 34t-18.5 58q0 23 7.5 46.5t23 42.5t39 31.5t54.5 13.5z" />
    <glyph glyph-name="percent" unicode="%" horiz-adv-x="766" 
d="M699 678l-630 -678h66l630 678h-66zM256 353q38 0 74 18t64 48t45 68t17 77q0 24 -7.5 46.5t-23 40.5t-38.5 28.5t-54 10.5q-36 0 -72 -17t-64.5 -46.5t-46 -68.5t-17.5 -83q0 -64 31 -93t92 -29zM273 388q-31 0 -46.5 25.5t-15.5 63.5q0 37 8.5 69.5t23.5 56.5t35 38
t42 14q30 0 43 -23.5t13 -59.5q0 -40 -8 -74t-21.5 -58.5t-32.5 -38t-41 -13.5zM505 -10q38 0 74 18t64 48t45 68t17 77q0 24 -7.5 46.5t-23 40.5t-38.5 28.5t-54 10.5q-36 0 -72 -17t-64.5 -46.5t-46 -68.5t-17.5 -83q0 -64 31 -93t92 -29zM522 25q-31 0 -46.5 25.5
t-15.5 63.5q0 37 8.5 69.5t23.5 56.5t35 38t42 14q30 0 43 -23.5t13 -59.5q0 -40 -8 -74t-21.5 -58.5t-32.5 -38t-41 -13.5z" />
    <glyph glyph-name="ampersand" unicode="&#x26;" horiz-adv-x="795" 
d="M474 149q30 31 58 74.5t53 83t46 67.5t37 28q11 0 11 -16q0 -5 -0.5 -11.5t-0.5 -11.5q0 -25 13 -37t30 -12q20 0 37.5 16.5t17.5 49.5q0 13 -4.5 25.5t-14.5 22.5t-25.5 16.5t-36.5 6.5q-29 0 -52 -13.5t-42 -36t-35 -51.5t-32.5 -59.5t-34.5 -60.5t-40 -54
q-29 47 -48 104t-32 111q56 20 94 43t61.5 48t34 50.5t10.5 48.5q0 50 -32.5 81.5t-90.5 31.5q-40 0 -72 -15t-54.5 -43.5t-34.5 -68t-12 -89.5q0 -21 1 -42.5t5 -46.5q-72 -24 -121.5 -54.5t-80 -64t-44.5 -69.5t-14 -71q0 -65 42.5 -105.5t115.5 -40.5q35 0 64 7t55.5 20
t51.5 31.5t51 41.5q16 -22 32 -40.5t35 -31.5t41.5 -20.5t50.5 -7.5q21 0 45 8.5t46.5 25.5t43 43t33.5 61l-22 9q-20 -38 -51.5 -55t-56.5 -17q-38 0 -70.5 24.5t-61.5 65.5zM392 107q-37 -35 -72.5 -50t-81.5 -15q-56 0 -85 34.5t-29 88.5q0 27 9.5 54.5t30 53.5
t52.5 48.5t78 39.5q13 -62 39.5 -131t58.5 -123zM375 419q-5 29 -7.5 54t-2.5 47q0 70 23 103.5t65 33.5q32 0 48.5 -21t16.5 -52q0 -53 -33 -96t-110 -69z" />
    <glyph glyph-name="quotesingle" unicode="'" horiz-adv-x="225" 
d="M180 402l64 147q16 36 24 55.5t10 29.5q8 30 -5.5 45t-33.5 15t-41 -15t-29 -46q-6 -22 -9 -83l-8 -148h28z" />
    <glyph glyph-name="parenleft" unicode="(" horiz-adv-x="366" 
d="M268 -192q-49 33 -76.5 83t-27.5 136q0 45 8.5 102t26.5 130q23 94 53.5 164t66.5 120.5t78.5 84.5t89.5 56l-5 27q-63 -25 -124 -68.5t-113 -102.5t-92 -133t-62 -161q-19 -75 -19 -143q0 -113 48 -194t130 -128z" />
    <glyph glyph-name="parenright" unicode=")" horiz-adv-x="366" 
d="M121 684q49 -33 76.5 -83t27.5 -136q0 -45 -8.5 -102t-26.5 -130q-23 -94 -53.5 -164t-66.5 -120.5t-78.5 -84.5t-89.5 -56l4 -27q64 25 125 68.5t113 102.5t92 133t61 161q19 75 19 143q0 113 -48 194t-130 128z" />
    <glyph glyph-name="asterisk" unicode="*" 
d="M357 496q7 -12 20.5 -27t28.5 -29q16 -15 23.5 -24.5t15.5 -22.5q9 -20 0.5 -36t-23.5 -23q-16 -8 -34 -4t-27 24q-5 11 -7 25t-3 37q-2 43 -13 69q-10 -10 -20 -26t-18 -34q-10 -20 -16 -31t-17 -21q-16 -16 -34 -12.5t-29 15.5q-12 12 -14 30.5t14 32.5q8 8 21 15
t33 15q21 7 37 16.5t26 17.5q-13 5 -31 10t-38 7q-22 3 -34 5t-25 10q-20 11 -22.5 29t5.5 32q8 15 24.5 23t35.5 -3q11 -6 21.5 -16t24.5 -27q13 -17 26.5 -30t24.5 -20q2 14 1.5 33.5t-5.5 38.5q-5 22 -6 34t1 27q5 23 21 30.5t33 4.5q16 -4 28.5 -17t8.5 -34
q-2 -12 -8.5 -25t-19.5 -32q-11 -17 -18.5 -35t-10.5 -30q14 3 31.5 9.5t34.5 17.5q19 11 30.5 16t26.5 8q22 2 34.5 -11t14.5 -30t-7 -32.5t-31 -18.5q-20 -3 -62 9q-20 5 -40 8t-33 2z" />
    <glyph glyph-name="plus" unicode="+" horiz-adv-x="576" 
d="M281 76l60 239h240l12 51h-240l60 239h-50l-60 -239h-238l-12 -51h238l-60 -239h50z" />
    <glyph glyph-name="comma" unicode="," horiz-adv-x="264" 
d="M3 -174q54 27 88 55t53.5 56t26.5 54t7 47q0 35 -18.5 52.5t-47.5 17.5q-30 0 -50.5 -20t-20.5 -44q0 -19 11.5 -33.5t31.5 -14.5q22 0 22 -18q0 -20 -9.5 -37t-25 -32t-36.5 -29t-45 -26z" />
    <glyph glyph-name="hyphen" unicode="-" horiz-adv-x="319" 
d="M43 212h239l19 76h-239z" />
    <glyph glyph-name="hyphen" unicode="&#x2010;" horiz-adv-x="319" 
d="M43 212h239l19 76h-239z" />
    <glyph glyph-name="hyphen" unicode="&#xad;" horiz-adv-x="319" 
d="M43 212h239l19 76h-239z" />
    <glyph glyph-name="period" unicode="." horiz-adv-x="254" 
d="M107 126q-28 0 -47.5 -19.5t-19.5 -47.5t19.5 -47.5t47.5 -19.5t47.5 19.5t19.5 47.5t-19.5 47.5t-47.5 19.5z" />
    <glyph glyph-name="slash" unicode="/" horiz-adv-x="381" 
d="M435 678l-485 -678h65l485 678h-65z" />
    <glyph glyph-name="zero" unicode="0" 
d="M357 691q-44 0 -85 -21.5t-76.5 -58t-65.5 -85t-51 -102t-33 -109t-12 -106.5q0 -49 10 -89.5t29.5 -69.5t47 -45.5t61.5 -16.5q48 0 104.5 37t105.5 102t81.5 153t32.5 190q0 48 -10.5 89t-29.5 70t-46.5 45.5t-62.5 16.5zM349 656q38 0 55.5 -34t17.5 -92q0 -32 -7 -82
t-20.5 -107t-33 -114.5t-45.5 -103.5t-57.5 -75t-68.5 -29q-38 0 -55.5 34.5t-17.5 93.5q0 32 7 82t20 106.5t33 113.5t45.5 103t57.5 75t69 29z" />
    <glyph glyph-name="one" unicode="1" 
d="M381 0v28h-44q-31 0 -44 7.5t-13 29.5q0 9 2 21t6 28q36 143 64 247.5t47.5 174t30.5 106t12 42.5q0 3 -3.5 5t-8.5 2q-6 0 -8 -2q-8 -6 -27.5 -18t-45.5 -25.5t-54.5 -28.5t-55.5 -28.5t-49 -23.5t-34 -14l9 -25l95 39q12 5 20.5 7.5t15.5 2.5q17 0 17 -21q0 -10 -5 -30
l-102 -410q-6 -26 -13 -42.5t-17.5 -26.5t-25.5 -13.5t-39 -3.5h-53v-28h323z" />
    <glyph glyph-name="two" unicode="2" 
d="M-6 27q-7 -6 -7 -13q0 -14 12 -14h393l66 156l-28 6q-9 -23 -20 -40t-32 -28t-57 -16t-96 -5h-123q115 74 193.5 136t126.5 116t68.5 102t20.5 93q0 44 -13.5 76.5t-36 53.5t-52.5 31.5t-63 10.5q-41 0 -80 -14.5t-70.5 -41.5t-52 -65.5t-25.5 -86.5l27 -3
q7 36 22.5 62.5t35.5 44t43.5 25.5t47.5 8t46 -8t39.5 -23.5t27.5 -38t10 -51.5q0 -47 -23.5 -94.5t-61.5 -93t-85 -88t-94 -79.5t-89 -67t-70 -51z" />
    <glyph glyph-name="three" unicode="3" 
d="M159 523q3 21 13 41t25.5 35t37.5 24t49 9q53 0 81.5 -30.5t28.5 -73.5q0 -26 -11.5 -54t-36.5 -53t-63 -45t-92 -31q-8 -2 -8 -12t11 -10q48 0 82 -10t55 -27.5t30.5 -40t9.5 -46.5q0 -35 -13 -65.5t-36 -53t-54 -35.5t-67 -13q-55 0 -79 25t-24 73q-33 0 -53.5 -21.5
t-20.5 -52.5q0 -13 6 -27t19.5 -24.5t35 -17.5t53.5 -7q77 0 136 21.5t99 56.5t60 80t20 92q0 26 -9 50.5t-26 44.5t-41 33t-53 14q84 38 120 87.5t36 96.5q0 28 -11 52.5t-31.5 43t-48 29.5t-60.5 11q-42 0 -76 -14.5t-59 -37.5t-40 -52t-18 -59z" />
    <glyph glyph-name="four" unicode="4" 
d="M82 230q30 38 68 83.5t78.5 92t81.5 90.5t76 80l-87 -346h-217zM381 230l63 250q12 48 21 82t16 58t12 40.5t8 29.5q-2 2 -9.5 3.5t-18.5 1.5q-10 0 -18.5 -1.5t-12.5 -3.5q-114 -111 -225 -238t-212 -255q-11 -14 -11 -26t13 -12h275l-40 -159h82l40 159h92q3 0 7 6.5
t7 16.5t5 20.5t2 17.5q0 10 -4 10h-92z" />
    <glyph glyph-name="five" unicode="5" 
d="M223 502l47 91h224l32 85h-255l-124 -254q57 -18 97.5 -43.5t66 -55.5t37 -62.5t11.5 -64.5q0 -33 -11.5 -63t-32.5 -52.5t-50.5 -36t-65.5 -13.5q-57 0 -81 28t-24 70q-43 0 -62.5 -21.5t-19.5 -47.5q0 -15 7 -29.5t23 -26.5t40.5 -19t58.5 -7q68 0 122 22.5t92 59.5
t58.5 84.5t20.5 97.5q0 38 -12.5 75.5t-38 71.5t-65.5 62.5t-95 48.5z" />
    <glyph glyph-name="six" unicode="6" 
d="M331 93q-23 -37 -54 -55.5t-61 -18.5q-37 0 -64 29.5t-27 91.5q0 20 3 42t9 45q22 78 61.5 118t92.5 40q47 0 69.5 -35t22.5 -87q0 -40 -13 -84.5t-39 -85.5zM578 692q-99 0 -184 -34t-151.5 -89t-112 -125t-64.5 -142q-18 -69 -18 -121q0 -50 14 -86.5t37.5 -60t54 -35
t64.5 -11.5q48 0 95 21t84 60q42 44 61 93.5t19 97.5q0 36 -10.5 67.5t-30 55t-48 37.5t-65.5 14q-38 0 -72 -16t-64 -51l-4 4q31 58 72.5 111t92 93.5t109 66t121.5 27.5v23z" />
    <glyph glyph-name="seven" unicode="7" 
d="M596 659q5 7 5 11q0 8 -6 8h-406l-72 -159l21 -7q9 18 20 33t27 25.5t40 16.5t59 6h200q-74 -79 -136.5 -156t-111.5 -148t-82 -134t-48 -116q-1 -3 -1.5 -5.5t-0.5 -5.5q0 -17 14 -24.5t32 -7.5q19 0 36 8.5t20 25.5q18 93 61.5 179t99 165t116 150t113.5 135z" />
    <glyph glyph-name="eight" unicode="8" 
d="M248 324q61 -51 87.5 -98t26.5 -86q0 -27 -10.5 -49t-29 -38t-43 -24.5t-51.5 -8.5q-28 0 -49.5 9.5t-35.5 25.5t-21 37t-7 43q0 52 31 102.5t102 86.5zM317 395q-48 45 -69 86t-21 75q0 48 33 76t79 28q51 0 77 -29.5t26 -68.5q0 -52 -29.5 -90.5t-95.5 -76.5zM231 341
q-106 -38 -151.5 -90t-45.5 -106q0 -29 12.5 -57.5t37 -50.5t60 -35.5t80.5 -13.5q41 0 80 14t69.5 39t49 59.5t18.5 75.5q0 54 -25 102t-82 96q56 19 91.5 40t56 43t28.5 45t8 47q0 29 -12 54.5t-34 45.5t-53 31.5t-70 11.5q-43 0 -80.5 -13t-65 -37t-43 -57.5t-15.5 -75.5
q0 -46 21 -84.5t65 -83.5z" />
    <glyph glyph-name="nine" unicode="9" 
d="M323 275l-8 20q-8 -3 -18.5 -4t-18.5 -1q-50 0 -73.5 35t-23.5 87q0 37 12 80t33.5 79.5t52.5 60.5t69 24q41 0 67 -26.5t26 -91.5q0 -66 -18.5 -130t-50.5 -122t-75 -107.5t-93.5 -86t-105.5 -58t-110 -23.5v-23q70 0 136.5 19t125.5 53.5t108.5 82t85 104.5t55 121
t19.5 131q0 50 -14 86.5t-37.5 60t-54 35t-64.5 11.5q-67 0 -116 -27.5t-81 -69t-47 -89t-15 -86.5q0 -36 10.5 -67t30 -54t48 -36t65.5 -13q20 0 39.5 6.5t40.5 18.5z" />
    <glyph glyph-name="colon" unicode=":" horiz-adv-x="254" 
d="M182 476q-28 0 -47.5 -19.5t-19.5 -47.5t19.5 -47.5t47.5 -19.5t47.5 19.5t19.5 47.5t-19.5 47.5t-47.5 19.5zM107 126q-28 0 -47.5 -19.5t-19.5 -47.5t19.5 -47.5t47.5 -19.5t47.5 19.5t19.5 47.5t-19.5 47.5t-47.5 19.5z" />
    <glyph glyph-name="semicolon" unicode=";" horiz-adv-x="264" 
d="M189 476q-28 0 -47.5 -19.5t-19.5 -47.5t19.5 -47.5t47.5 -19.5t47.5 19.5t19.5 47.5t-19.5 47.5t-47.5 19.5zM-13 -174q54 27 88 55t53.5 56t26.5 54t7 47q0 35 -18.5 52.5t-47.5 17.5q-30 0 -50.5 -20t-20.5 -44q0 -19 11.5 -33.5t31.5 -14.5q22 0 22 -18
q0 -20 -9.5 -37t-25 -32t-36.5 -29t-45 -26z" />
    <glyph glyph-name="semicolon" unicode="&#x37e;" horiz-adv-x="264" 
d="M189 476q-28 0 -47.5 -19.5t-19.5 -47.5t19.5 -47.5t47.5 -19.5t47.5 19.5t19.5 47.5t-19.5 47.5t-47.5 19.5zM-13 -174q54 27 88 55t53.5 56t26.5 54t7 47q0 35 -18.5 52.5t-47.5 17.5q-30 0 -50.5 -20t-20.5 -44q0 -19 11.5 -33.5t31.5 -14.5q22 0 22 -18
q0 -20 -9.5 -37t-25 -32t-36.5 -29t-45 -26z" />
    <glyph glyph-name="less" unicode="&#x3c;" horiz-adv-x="576" 
d="M52 329l6 24l595 233l-13 -53l-496 -191l400 -195l-14 -53z" />
    <glyph glyph-name="equal" unicode="=" horiz-adv-x="576" 
d="M30 230h529l13 49h-529zM73 401h529l12 49h-529z" />
    <glyph glyph-name="greater" unicode="&#x3e;" horiz-adv-x="576" 
d="M596 351l-6 -24l-596 -233l14 53l495 191l-399 195l13 53z" />
    <glyph glyph-name="question" unicode="?" horiz-adv-x="454" 
d="M225 188q2 31 22.5 58t51.5 52t66 50t65 54t50 62.5t20 74.5q0 73 -47 114t-130 41q-49 0 -88 -15t-66.5 -39.5t-42 -56.5t-14.5 -66q0 -35 17 -51t41 -16q23 0 41 15t18 43q0 13 -3 21.5t-6.5 16t-6.5 16.5t-3 23q0 31 25 52.5t76 21.5t72 -26t21 -76q0 -36 -15 -68
t-37.5 -61t-49.5 -57t-50 -56.5t-38.5 -60t-16.5 -66.5h28zM186 121q-26 0 -45 -18.5t-19 -44.5q0 -27 19 -45.5t45 -18.5t45 18.5t19 45.5q0 26 -19 44.5t-45 18.5z" />
    <glyph glyph-name="at" unicode="@" horiz-adv-x="941" 
d="M603 454l-56 -200q-13 -47 -32 -82t-40 -58.5t-42.5 -35.5t-39.5 -12q-30 0 -44 25t-14 65q0 44 15.5 96t45 97.5t73.5 76t101 30.5h15q8 0 18 -2zM692 -125l-13 27q-55 -30 -115 -46t-120 -16q-65 0 -125 19.5t-106 60t-73.5 103t-27.5 147.5q0 78 19 143t51.5 117.5
t76 92t93 66t102.5 40t104 13.5q56 0 105.5 -16t87.5 -48t60 -80.5t22 -113.5q0 -93 -20.5 -159t-50.5 -107t-63 -60t-59 -19q-20 0 -32 10t-12 28q0 17 2 32t7 34q25 100 45.5 181t40.5 147q0 13 -13 13q-23 0 -44.5 5t-52.5 5q-59 0 -119 -31.5t-108.5 -83t-79 -118.5
t-30.5 -138q0 -57 23 -90.5t77 -33.5q31 0 60.5 13t55.5 36t47.5 54t35.5 67l6 -2q-5 -17 -8 -29.5t-5 -23t-2.5 -20t-0.5 -20.5q0 -37 24.5 -55.5t62.5 -18.5q41 0 90 23t92 70t71.5 119t28.5 170q0 76 -27 132.5t-73.5 93.5t-107 55.5t-128.5 18.5q-61 0 -123.5 -14.5
t-121.5 -44t-110.5 -73t-90 -100.5t-60.5 -128.5t-22 -155.5q0 -93 29 -161.5t78.5 -113.5t116.5 -67t142 -22q70 0 143 18.5t145 54.5z" />
    <glyph glyph-name="A" unicode="A" horiz-adv-x="624" 
d="M370 558q2 -29 6 -63t8 -63l20 -162h-215l107 165q11 16 22 34t21 35t18 31t13 23zM424 109q1 -8 1.5 -14.5t0.5 -11.5q0 -32 -16.5 -43.5t-61.5 -11.5v-28h248v28q-19 0 -31 5t-21 31t-18.5 80t-24.5 151l-58 391h-37l-253 -387q-58 -90 -97 -143.5t-63.5 -82t-39.5 -37
t-25 -8.5v-28h245v28q-51 0 -70.5 8t-19.5 28q0 27 13.5 53t39.5 67l30 48h244z" />
    <glyph glyph-name="B" unicode="B" horiz-adv-x="622" 
d="M162 82q0 11 6 40t15 66t19 76t19 70h79q46 0 76.5 -11.5t49 -31t26 -45.5t7.5 -54q0 -77 -50 -117t-149 -40q-56 0 -77 9.5t-21 37.5zM230 370q19 67 36.5 134t38.5 134q14 2 22.5 3.5t25.5 1.5q40 0 66.5 -10.5t42.5 -28t23 -40t7 -46.5q0 -30 -11 -57t-33 -47t-55 -32
t-77 -12h-86zM403 358q90 8 140 50t50 108q0 30 -11.5 59t-37 52t-67 37t-102.5 14h-224v-28h10q14 0 21.5 -6.5t7.5 -23.5q0 -18 -9 -56l-113 -450q-13 -52 -26 -69t-36 -17h-10v-28h293q78 0 130.5 18.5t85 47t46.5 62t14 64.5q0 27 -9.5 54t-29 49t-50 37t-73.5 18v8z
" />
    <glyph glyph-name="C" unicode="C" horiz-adv-x="609" 
d="M637 665q0 6 -3 7.5t-8 2.5q-10 1 -21 4t-27.5 6.5t-40.5 6t-60 2.5q-90 0 -168 -38t-135.5 -103t-90.5 -151.5t-33 -184.5q0 -61 19 -105.5t50 -73t71 -42t82 -13.5q94 0 168 46t113 143l-24 11q-30 -67 -83 -99t-121 -32q-32 0 -62.5 11.5t-54.5 37t-38.5 65
t-14.5 96.5q0 85 25.5 156.5t66.5 123.5t93 81t104 29q71 0 98.5 -31.5t27.5 -93.5q0 -10 -2 -31.5t-6 -39.5q0 -7 13 -7q5 0 9.5 1.5t5.5 5.5z" />
    <glyph glyph-name="D" unicode="D" horiz-adv-x="689" 
d="M302 635h58q111 0 160.5 -55.5t49.5 -168.5q0 -75 -18.5 -142.5t-57.5 -118.5t-99 -81t-142 -30q-48 0 -69 10.5t-21 35.5q0 14 4 29q32 131 66 260.5t69 260.5zM-4 0h250q111 0 192 31t134.5 83.5t79.5 122.5t26 147q0 53 -14.5 105.5t-52 94.5t-102.5 68t-165 26h-192
v-28h10q14 0 21 -6t7 -23q0 -19 -9 -57l-112 -450q-13 -52 -26.5 -69t-36.5 -17h-10v-28z" />
    <glyph glyph-name="E" unicode="E" horiz-adv-x="617" 
d="M230 366q17 68 35 135.5t37 137.5h121q80 0 116 -21t36 -69q0 -11 -2 -22.5t-5 -24.5h28l40 176h-484v-28h10q14 0 22 -5t8 -22q0 -9 -2.5 -22t-7.5 -32l-113 -455q-13 -52 -26.5 -69t-36.5 -17h-10v-28h500l59 201h-28q-16 -44 -36.5 -75t-49.5 -50.5t-70 -28.5t-97 -9
q-65 0 -88.5 10t-23.5 34q0 11 5 31l54 217h80q51 0 69.5 -12.5t18.5 -40.5q0 -11 -2 -23.5t-6 -28.5h28l60 244h-28q-9 -35 -21 -55.5t-28.5 -31t-36.5 -13.5t-45 -3h-80z" />
    <glyph glyph-name="F" unicode="F" horiz-adv-x="523" 
d="M167 114l54 216h80q51 0 69.5 -12.5t18.5 -40.5q0 -11 -2 -23.5t-6 -28.5h28l60 244h-28q-9 -35 -21 -55.5t-28.5 -31t-36.5 -13.5t-45 -3h-80q17 68 35 135.5t37 137.5h121q80 0 116 -21t36 -69q0 -11 -2 -22.5t-5 -24.5h28l40 176h-484v-28h10q14 0 22 -5t8 -22
q0 -9 -2.5 -22t-7.5 -32l-113 -455q-7 -27 -13 -43.5t-14 -26t-19 -13t-27 -3.5v-28h216v28q-30 0 -41.5 9t-11.5 29q0 16 8 48z" />
    <glyph glyph-name="G" unicode="G" horiz-adv-x="703" 
d="M479 694q-67 0 -125 -20t-106 -54t-85 -79.5t-62.5 -96t-39 -104.5t-13.5 -104q0 -56 16 -102.5t46 -79.5t74 -51.5t100 -18.5q40 0 73.5 3.5t65.5 11t63.5 20.5t67.5 32l43 175q11 45 30 58t57 13v28h-282v-28q59 0 81 -8t22 -31q0 -13 -4 -26l-36 -143
q-3 -11 -10 -21.5t-20 -19t-33 -13.5t-49 -5q-37 0 -73 13t-63.5 40.5t-44.5 69.5t-17 100q0 90 24 164t66.5 126t101 80.5t126.5 28.5q66 0 93.5 -40.5t27.5 -110.5q0 -10 -1 -20t-3 -21q0 -3 4 -5t9 -2q13 0 15 7l47 202q0 7 -3 8.5t-8 2.5q-11 2 -22.5 5t-30.5 7
t-47.5 6.5t-74.5 2.5z" />
    <glyph glyph-name="H" unicode="H" horiz-adv-x="725" 
d="M523 330l-54 -216q-13 -52 -26 -69t-36 -17h-10v-28h200v28h-10q-14 0 -21.5 6.5t-7.5 23.5q0 19 9 56q29 113 57.5 225t58.5 225q7 26 13 42.5t13.5 26.5t16 13.5t19.5 3.5h10v28h-203v-28h10q14 0 21.5 -6.5t7.5 -23.5q0 -18 -9 -56l-49 -196h-302q13 50 25 99t26 97
q7 26 13 42.5t13.5 26.5t16 13.5t19.5 3.5h10v28h-203v-28h10q14 0 21.5 -6.5t7.5 -23.5q0 -18 -9 -56l-113 -450q-13 -52 -26 -69t-36 -17h-10v-28h200v28h-10q-14 0 -21.5 6.5t-7.5 23.5q0 19 9 56q14 55 27.5 108.5t27.5 107.5h302z" />
    <glyph glyph-name="I" unicode="I" horiz-adv-x="324" 
d="M282 564q7 26 13 42.5t13.5 26.5t16 13.5t19.5 3.5h10v28h-203v-28h10q14 0 21.5 -6.5t7.5 -23.5q0 -18 -9 -56l-113 -450q-13 -52 -26 -69t-36 -17h-10v-28h200v28h-10q-14 0 -21.5 6.5t-7.5 23.5q0 19 9 56q29 113 57.5 225t58.5 225z" />
    <glyph glyph-name="J" unicode="J" horiz-adv-x="396" 
d="M294 237l81 327q13 52 26.5 69t36.5 17h10v28h-232v-28h42q14 0 21 -6t7 -23q0 -19 -9 -57l-113 -455q-10 -39 -24 -64t-34 -25q-10 0 -16.5 7t-6.5 23q0 11 -2 22t-7.5 20.5t-15.5 15.5t-26 6q-29 0 -44 -20.5t-15 -43.5q0 -33 21 -49.5t70 -16.5q24 0 55 9t63 36
t61.5 76.5t50.5 131.5z" />
    <glyph glyph-name="K" unicode="K" horiz-adv-x="687" 
d="M457 0h153v28q-13 3 -29.5 12.5t-41.5 36.5t-62.5 77t-93.5 134l-58 87l241 192q38 30 66 47t48 24.5t35 9.5t28 2v28h-258v-28q17 0 29 -10t12 -26q0 -13 -11.5 -29t-37.5 -38l-248 -205q54 -85 110 -170t118 -172zM282 564q7 26 13 42.5t13.5 26.5t16 13.5t19.5 3.5h10
v28h-203v-28h10q14 0 21.5 -6.5t7.5 -23.5q0 -18 -9 -56l-113 -450q-13 -52 -26 -69t-36 -17h-10v-28h200v28h-10q-14 0 -21.5 6.5t-7.5 23.5q0 19 9 56q29 113 57.5 225t58.5 225z" />
    <glyph glyph-name="L" unicode="L" horiz-adv-x="553" 
d="M181 564l-112 -450q-13 -52 -26.5 -69t-36.5 -17h-10v-28h487l66 215h-28q-15 -50 -34.5 -83.5t-51 -53.5t-77.5 -28.5t-113 -8.5q-48 0 -65.5 8.5t-17.5 30.5q0 8 1.5 16t3.5 18l112 450q13 52 26.5 69t36.5 17h27v28h-217v-28h10q14 0 21 -6t7 -23q0 -19 -9 -57z" />
    <glyph glyph-name="M" unicode="M" horiz-adv-x="864" 
d="M396 131q-2 21 -5 49.5t-6.5 59t-7.5 61.5t-8 57l-48 320h-169v-28h10q14 0 21 -6t7 -23q0 -19 -9 -57l-110 -442q-8 -31 -16.5 -49.5t-17 -28.5t-16.5 -13t-15 -3h-10v-28h195v28h-16q-35 0 -50.5 12t-15.5 39q0 10 2 20.5t5 24.5l89 357q13 50 18 74t6 29h7
q0 -10 1 -26t4 -41t8.5 -59.5t14.5 -82.5l66 -376q0 -2 3.5 -3.5t8.5 -1.5t10 1.5t7 3.5l241 379l42 66.5t32 51.5t25.5 44t23.5 44h7q-1 -5 -8 -29t-20 -74l-92 -372q-7 -26 -13 -42t-13.5 -24.5t-16 -11.5t-19.5 -3h-16v-28h206v28h-10q-14 0 -22 5t-8 22q0 9 2.5 22
t7.5 32l113 455q13 52 26.5 69t36.5 17h10v28h-159l-207 -327q-16 -25 -34.5 -55t-36 -59.5t-33.5 -57t-28 -48.5z" />
    <glyph glyph-name="N" unicode="N" horiz-adv-x="707" 
d="M517 161q-5 22 -17.5 52t-26.5 64l-171 401h-174v-28h10q19 0 37 -11.5t18 -43.5q0 -15 -4 -31l-107 -430q-16 -62 -36 -84t-49 -22h-10v-28h237v28h-16q-48 0 -67 11t-19 40q0 22 9 56l80 320q12 50 19.5 80.5t10.5 47.5q5 -20 16.5 -52t26.5 -66l207 -469q2 -3 9 -3
q18 0 20 7l138 552q8 30 19.5 49.5t24.5 30t24.5 14.5t17.5 4h10v28h-217v-28h12q38 0 55 -11.5t17 -38.5q0 -9 -2 -20t-5 -25l-69 -275q-4 -16 -8.5 -33t-8 -33t-6.5 -30t-5 -23z" />
    <glyph glyph-name="O" unicode="O" horiz-adv-x="703" 
d="M313 594q29 27 66 42.5t73 15.5q53 0 87.5 -34.5t34.5 -109.5q0 -62 -12 -125.5t-33 -121t-51 -106.5t-66 -81q-26 -23 -59.5 -37t-65.5 -14q-23 0 -45 9t-38.5 29t-26.5 52t-10 77q0 54 9 110t27 109.5t45.5 101t64.5 83.5zM682 439q0 63 -18.5 110.5t-49.5 79.5t-72 48
t-86 16q-92 0 -176 -51q-48 -29 -89 -71t-71.5 -94.5t-47.5 -115t-17 -133.5q0 -65 19.5 -111.5t52 -76t74.5 -43.5t87 -14q44 0 87 12t80 35q54 32 96 79.5t71 102t44.5 113.5t15.5 114z" />
    <glyph glyph-name="P" unicode="P" horiz-adv-x="584" 
d="M218 321q20 79 40.5 157t41.5 155q32 6 63 6q36 0 63 -10.5t45 -28.5t27 -42.5t9 -52.5q0 -35 -11 -69.5t-36.5 -61.5t-67 -44t-101.5 -17q-38 0 -73 8zM211 294q27 -9 54.5 -13t54.5 -4q73 0 128 20t91.5 52t55 72.5t18.5 81.5q0 34 -13 65.5t-40 56t-69.5 39
t-102.5 14.5h-237v-28h10q14 0 21 -6t7 -23q0 -19 -9 -57l-112 -450q-13 -52 -26.5 -69t-36.5 -17h-10v-28h216v28h-26q-14 0 -21 6t-7 23q0 20 9 57z" />
    <glyph glyph-name="Q" unicode="Q" horiz-adv-x="703" 
d="M207 -5q51 -92 144.5 -145t241.5 -53v28q-34 0 -71 9.5t-72 29t-65.5 50t-53.5 72.5q68 9 124 44q54 32 96 79.5t71 102t44.5 113.5t15.5 114q0 63 -18.5 110.5t-50 79.5t-73.5 48t-89 16q-42 0 -85.5 -12.5t-85.5 -38.5q-48 -29 -89 -71t-71.5 -94.5t-47.5 -115
t-17 -133.5q0 -50 12 -89t32.5 -67.5t48 -47.5t59.5 -29zM313 594q29 27 66 42.5t73 15.5q53 0 87.5 -34.5t34.5 -109.5q0 -62 -12 -125.5t-33 -121t-51 -106.5t-66 -81q-26 -23 -59.5 -37t-65.5 -14q-23 0 -45 9t-38.5 29t-26.5 52t-10 77q0 54 9 110t27 109.5t45.5 101
t64.5 83.5z" />
    <glyph glyph-name="R" unicode="R" horiz-adv-x="652" 
d="M215 308q12 -2 26.5 -3t28.5 -1h21q17 -40 35 -81t36.5 -80.5t37 -76t37.5 -66.5h157v28q-14 2 -25.5 5t-22.5 11t-23 23.5t-29 42.5q-16 26 -32 53t-30 54t-25.5 52t-19.5 45q53 4 94 22t69.5 44t43.5 58t15 63q0 33 -11 65t-36.5 57t-67 40t-103.5 15h-239v-28h10
q14 0 21 -6t7 -23q0 -19 -9 -57l-112 -450q-13 -52 -26.5 -69t-36.5 -17h-10v-28h207v28h-17q-14 0 -21 6t-7 23q0 20 9 57zM224 342q18 75 38 148t40 144q17 2 30.5 3.5t30.5 1.5q38 0 65 -11.5t44.5 -30.5t26 -44t8.5 -51q0 -30 -11 -59.5t-35 -52.5t-61.5 -37.5
t-89.5 -14.5q-28 0 -47.5 1t-38.5 3z" />
    <glyph glyph-name="S" unicode="S" horiz-adv-x="558" 
d="M229 -16q65 0 112.5 14.5t79 40t46.5 61t15 76.5q0 33 -12 61.5t-32 53t-46.5 47t-55.5 44.5q-23 18 -42.5 34t-33.5 34t-22 38.5t-8 46.5q0 55 32.5 87t89.5 32q58 0 93 -31.5t35 -102.5q0 -11 -1 -21.5t-3 -21.5q0 -3 4 -5t9 -2q13 0 15 7l45 179q0 12 -11 12
t-25.5 4.5t-36 9t-51 8.5t-69.5 4q-51 0 -92 -16.5t-69.5 -44t-44 -62t-15.5 -70.5q0 -37 12.5 -66.5t32 -53.5t43.5 -43.5t46 -36.5q25 -19 45 -35.5t33.5 -34.5t20.5 -38t7 -46q0 -36 -13 -60t-33.5 -38t-46 -19.5t-50.5 -5.5q-66 0 -107.5 39.5t-41.5 111.5q0 19 3 40
h-29l-45 -182q0 -11 11 -13q12 -1 31 -7t45 -12.5t58.5 -11.5t71.5 -5z" />
    <glyph glyph-name="T" unicode="T" horiz-adv-x="589" 
d="M329 639l-131 -525q-13 -52 -26.5 -69t-36.5 -17h-10v-28h200v28h-10q-14 0 -21 6t-7 23q0 20 9 57l131 525q52 -1 87 -6.5t56 -17t30 -28t9 -39.5q0 -21 -8 -53h28l41 183h-564l-51 -183h28q9 36 24 63t42 44.5t70.5 26.5t109.5 10z" />
    <glyph glyph-name="U" unicode="U" horiz-adv-x="701" 
d="M682 552q8 30 19.5 49.5t23.5 30t23 14.5t17 4h10v28h-221v-28h17q33 0 48 -15t15 -46q0 -25 -9 -61l-73 -294q-12 -49 -37 -84.5t-56.5 -58.5t-68.5 -33.5t-73 -10.5q-31 0 -58.5 7.5t-48.5 23.5t-33.5 41t-12.5 59q0 28 7 56l82 330q13 52 26.5 69t36.5 17h30v28h-220
v-28h10q14 0 21 -6t7 -23q0 -19 -9 -57l-86 -346q-7 -27 -7 -53q0 -43 18.5 -76.5t49 -57t71 -35.5t83.5 -12q50 0 100 16t93.5 48t77 79.5t49.5 111.5z" />
    <glyph glyph-name="V" unicode="V" horiz-adv-x="624" 
d="M274 248l-42 321q-1 8 -1.5 14.5t-0.5 12.5q0 32 16.5 43t61.5 11v28h-248v-28q13 0 22 -1.5t16.5 -9.5t13.5 -25t12.5 -46.5t13.5 -74.5t17 -110l58 -391h37l253 387q59 90 97.5 143.5t63 82t39.5 37t25 8.5v28h-245v-28q51 0 70.5 -8t19.5 -28q0 -27 -13.5 -53
t-39.5 -67l-160 -249q-10 -16 -21.5 -34t-21.5 -35t-18 -31t-13 -23q-2 29 -5 63t-7 63z" />
    <glyph glyph-name="W" unicode="W" horiz-adv-x="969" 
d="M529 485l37 -493h41l325 517q49 78 83 109.5t66 31.5v28h-210v-28q24 0 39 -7.5t15 -27.5q0 -11 -6.5 -29t-24.5 -48l-178 -289q-20 -32 -39.5 -67t-36.5 -66q1 6 1.5 17t0.5 26q0 20 -0.5 44.5t-2.5 47.5l-18 311q-1 11 -1.5 24.5t-0.5 28.5q0 20 1 37t3 26h-43
q-5 -17 -21 -49t-32 -60l-172 -315q-9 -17 -19 -35.5t-19.5 -37t-18.5 -35.5t-15 -30q1 4 1 20q0 21 -2 53.5t-6 61.5l-42 344q-4 34 15.5 44.5t61.5 10.5v28h-243v-28q14 0 24.5 -2.5t18 -11.5t13.5 -26.5t10 -46.5l81 -571h44z" />
    <glyph glyph-name="X" unicode="X" horiz-adv-x="695" 
d="M594 543q35 33 60 54t43.5 32.5t33.5 16t29 4.5v28h-223v-28q32 0 46.5 -6.5t14.5 -19.5q0 -17 -12 -32.5t-30 -32.5l-153 -150l-66 153q-12 27 -12 44q0 44 79 44v28h-273v-28q35 0 62 -34t53 -92l86 -187l-209 -200q-36 -34 -61 -55t-42.5 -32.5t-31 -16t-27.5 -5.5
v-28h211v28q-52 0 -52 29q0 17 11.5 31.5t30.5 32.5l183 180l72 -172q14 -36 14 -55q0 -30 -21 -38t-53 -8v-28h262v28q-16 0 -28 6t-24 21t-25 41.5t-31 67.5l-93 209z" />
    <glyph glyph-name="Y" unicode="Y" horiz-adv-x="628" 
d="M369 284l230 259q32 36 53.5 57t37 32t28.5 14.5t27 3.5v28h-211v-28q55 0 55 -32q0 -22 -31 -59l-201 -229l-101 244q-9 21 -9 35q0 40 66 41v28h-243v-28q35 0 56 -33t44 -93l100 -246l-41 -164q-13 -52 -26.5 -69t-36.5 -17h-16v-28h212v28h-16q-14 0 -21 6t-7 23
q0 20 9 57z" />
    <glyph glyph-name="Z" unicode="Z" horiz-adv-x="624" 
d="M-28 0h539l66 203l-27 3q-10 -31 -28 -60.5t-45 -52.5t-62.5 -37.5t-80.5 -14.5h-220l566 620l-1 17h-495l-67 -214h28q10 35 27.5 66.5t42 55.5t54.5 38t65 14h204l-568 -619z" />
    <glyph glyph-name="bracketleft" unicode="[" horiz-adv-x="340" 
d="M222 -164h-138l204 818h138l10 40h-219l-224 -897h219z" />
    <glyph glyph-name="backslash" unicode="\" horiz-adv-x="381" 
d="M184 678h-65l147 -678h65z" />
    <glyph glyph-name="bracketright" unicode="]" horiz-adv-x="340" 
d="M140 654h139l-204 -818h-139l-10 -40h219l224 898h-219z" />
    <glyph glyph-name="asciicircum" unicode="^" horiz-adv-x="480" 
d="M357 692h15l122 -358h-51l-98 289l-242 -289h-51z" />
    <glyph glyph-name="underscore" unicode="_" 
d="M430 -125l13 51h-511l-13 -51h511z" />
    <glyph glyph-name="grave" unicode="`" horiz-adv-x="335" 
d="M199 653l115 -132l23 7l-59 150h-69q-16 0 -16 -11q0 -6 6 -14z" />
    <glyph glyph-name="a" unicode="a" horiz-adv-x="504" 
d="M384 444l-56 -200q-13 -47 -33 -82.5t-42.5 -59.5t-45 -36.5t-40.5 -12.5q-30 0 -44 25t-14 65q0 44 16.5 96.5t47.5 98.5t76 77t102 31h15q8 0 18 -2zM477 102l-23 8q-6 -28 -22.5 -42t-31.5 -14q-9 0 -15 6t-6 17q0 17 2 32t7 34q25 100 44.5 176t39.5 142q0 13 -13 13
q-23 0 -44.5 5t-52.5 5q-59 0 -120 -32t-111 -84.5t-81.5 -119.5t-31.5 -138q0 -57 23 -90.5t77 -33.5q31 0 61.5 13.5t58 37t50 55t36.5 67.5l6 -2q-20 -71 -20 -110q0 -26 13 -40t34 -14q16 0 35 8t36 22t30.5 34t18.5 45z" />
    <glyph glyph-name="b" unicode="b" horiz-adv-x="494" 
d="M111 26l29 118q19 76 43 128.5t50 84.5t52.5 46.5t48.5 14.5q29 0 43 -24.5t14 -62.5q0 -42 -18 -95.5t-51 -100.5t-79 -79t-102 -32h-15t-15 2zM172 315l-6 2q7 20 16.5 50.5t20 66t21 73t20 72t17.5 63t13 45.5q0 3 -3.5 5t-8.5 2q-3 0 -9 -2l-132 -21l-4 -28h13
q23 0 31 -9.5t3 -28.5q-4 -18 -14.5 -63.5t-23.5 -105t-28 -125.5t-29 -126.5t-25.5 -107.5t-17.5 -68q0 -13 13 -13q23 0 43.5 -5t50.5 -5q48 0 92.5 18.5t83.5 49.5t71 70.5t54.5 82.5t35 85t12.5 78q0 50 -23.5 82t-76.5 32q-34 0 -66 -15.5t-59.5 -39.5t-49 -54
t-35.5 -60z" />
    <glyph glyph-name="c" unicode="c" horiz-adv-x="392" 
d="M396 401q0 16 -5 31t-17 26.5t-30.5 18.5t-45.5 7q-50 0 -98.5 -29t-87 -76t-62 -108t-23.5 -124q0 -84 36.5 -121.5t99.5 -37.5q62 0 110.5 39.5t71.5 119.5l-23 9q-16 -50 -50 -71.5t-70 -21.5q-39 0 -67 27t-28 87t15.5 108t39 81t51 51t50.5 18t30.5 -12t7.5 -44
q0 -26 12 -36t29 -10q20 0 37 15.5t17 52.5z" />
    <glyph glyph-name="d" unicode="d" horiz-adv-x="504" 
d="M393 482q-7 1 -15 1.5t-16 0.5q-59 0 -120 -32t-111 -84.5t-81.5 -119.5t-31.5 -138q0 -57 23 -90.5t77 -33.5q31 0 61.5 13.5t58 37t50 55t36.5 67.5l6 -2q-20 -71 -20 -110q0 -26 13 -40t34 -14q16 0 35 8t36 22t30.5 34t18.5 45l-23 8q-6 -28 -22.5 -42t-31.5 -14
q-9 0 -15 6t-6 17q0 17 2 32t7 34q36 145 64 246t47 165.5t29 96t11 37.5q-8 6 -16 6q-3 0 -9 -2l-132 -21l-4 -28h13q23 0 30.5 -9.5t2.5 -28.5zM384 444l-56 -200q-13 -47 -33 -82.5t-42.5 -59.5t-45 -36.5t-40.5 -12.5q-30 0 -44 25t-14 65q0 44 16.5 96.5t47.5 98.5
t76 77t102 31h15q8 0 18 -2z" />
    <glyph glyph-name="e" unicode="e" horiz-adv-x="404" 
d="M269 439q23 0 35.5 -12.5t12.5 -30.5q0 -14 -10 -33.5t-33.5 -37t-62.5 -29.5t-96 -12q13 41 31 70.5t39 48t42.5 27.5t41.5 9zM110 259q9 -1 18 -1h18q73 0 122.5 15t80 37t43.5 47.5t13 47.5q0 32 -21.5 55.5t-65.5 23.5q-48 0 -89 -16.5t-74 -44t-58 -63.5
t-41.5 -74.5t-25 -76.5t-8.5 -71q0 -39 11 -68t29 -48t42 -28t50 -9q27 0 54.5 9t52 27t43 43.5t27.5 58.5l-20 8q-18 -35 -50.5 -53.5t-64.5 -18.5q-19 0 -36.5 6.5t-30.5 20t-21 34.5t-8 50q0 30 3 51.5t7 37.5z" />
    <glyph glyph-name="f" unicode="f" horiz-adv-x="288" 
d="M-21 -151q-12 0 -16.5 9t-4.5 26q0 19 -10.5 28t-24.5 9q-25 0 -37 -16.5t-12 -37.5t15.5 -39t47.5 -18q47 0 78 19t51.5 50t33 70t22.5 80q14 57 28 112t27 104.5t24.5 92.5t20.5 74h98l10 56h-94q0 21 2 51.5t9 58t19.5 47t34.5 19.5q23 0 23 -33q0 -20 14 -32t31 -12
q19 0 34 15t15 44q0 12 -3.5 24t-12.5 21.5t-24.5 16t-39.5 6.5q-39 0 -67.5 -14t-50.5 -41t-38.5 -65.5t-30.5 -86.5q-6 -22 -28 -33.5t-51 -13.5l-6 -28h69l-104 -451q-8 -34 -14 -56t-11.5 -34.5t-12 -17t-14.5 -4.5z" />
    <glyph glyph-name="g" unicode="g" horiz-adv-x="478" 
d="M90 18q28 -8 68 -13t94 -11q26 -3 41.5 -8.5t24 -12.5t11.5 -16t3 -19q0 -39 -35 -63t-89 -24q-43 0 -75.5 8.5t-54.5 22t-33 30.5t-11 35q0 21 14 40.5t42 30.5zM150 174q-57 -11 -89.5 -35t-32.5 -53q0 -21 9 -35t30 -22q-22 -7 -42 -19.5t-35 -27.5t-23.5 -32.5
t-8.5 -34.5q0 -29 16.5 -50.5t43.5 -36.5t62 -22.5t73 -7.5q60 0 106 16t77 41.5t47 56.5t16 60q0 42 -25 63.5t-87 29.5q-35 5 -68.5 8t-59 7.5t-41 12t-15.5 21.5q0 11 8.5 19t22.5 13t32 7t38 2q57 0 97.5 14.5t67 38t38.5 52.5t12 58q0 35 -14 63t-34 45
q18 -5 43.5 -8.5t67.5 -3.5q8 0 12.5 15.5t4.5 27.5q0 16 -7 16q-11 0 -28.5 -2.5t-50.5 -2.5q-25 0 -42 2.5t-31 5.5t-28.5 5.5t-34.5 2.5q-49 0 -86.5 -16.5t-63.5 -42.5t-39.5 -59.5t-13.5 -66.5q0 -50 22 -79.5t54 -45.5zM268 448q33 0 52 -19.5t19 -69.5
q0 -35 -9.5 -66t-24.5 -54.5t-35 -37t-41 -13.5q-34 0 -52.5 20t-18.5 64q0 36 8 68t22.5 56t34.5 38t45 14z" />
    <glyph glyph-name="h" unicode="h" horiz-adv-x="518" 
d="M178 322q12 41 26.5 89t29 96.5t28.5 95t27 84.5q0 3 -3.5 5t-8.5 2q-3 0 -9 -2l-132 -21l-4 -28h13q23 0 30.5 -9.5t2.5 -28.5l-149 -592q0 -8 12.5 -11.5t27.5 -3.5q14 0 26.5 3.5t14.5 11.5q11 55 21 98t18 72q14 51 39 95t53.5 76t56.5 50t48 18q21 0 30 -11t9 -36
q0 -22 -12 -60.5t-27 -83.5q-20 -60 -34 -109t-14 -77q0 -26 13 -39t42 -13q18 0 38 7.5t38 22t31.5 34.5t19.5 45l-23 8q-7 -29 -23.5 -42.5t-30.5 -13.5q-11 0 -16 8t-5 21q0 12 3.5 27.5t8 30.5t9.5 29.5t9 25.5q9 26 19.5 54t19.5 54.5t15 49.5t6 38q0 43 -21.5 67.5
t-58.5 24.5q-25 0 -54 -12t-57.5 -33.5t-55 -51t-47.5 -65.5z" />
    <glyph glyph-name="i" unicode="i" horiz-adv-x="262" 
d="M230 477l-7 7l-150 -28l-6 -29q27 0 39 -7t12 -24q0 -10 -6 -35.5t-14.5 -59t-18.5 -71.5t-18.5 -73.5t-14.5 -65t-6 -45.5q0 -29 14 -41t37 -12q18 0 38.5 7.5t38.5 22t32.5 34.5t20.5 45l-23 8q-7 -29 -23.5 -42.5t-30.5 -13.5q-19 0 -19 23q0 11 6 39t15.5 65
t21.5 79.5t23.5 83.5t22 76t16.5 57zM217 676q-21 0 -35.5 -14.5t-14.5 -35.5t14.5 -35.5t35.5 -14.5t35.5 14.5t14.5 35.5t-14.5 35.5t-35.5 14.5z" />
    <glyph glyph-name="j" unicode="j" horiz-adv-x="244" 
d="M230 477l-7 7l-150 -28l-6 -29q27 0 38.5 -6.5t11.5 -23.5q0 -9 -5 -33t-12.5 -58t-18 -76t-21.5 -85.5l-22 -87t-20 -81.5q-15 -60 -25.5 -92t-32.5 -32q-12 0 -18 5t-6 19q0 17 -10.5 25.5t-23.5 8.5q-15 0 -28 -11t-13 -34q0 -21 15 -38t48 -17q42 0 71.5 19
t50.5 49.5t35 70t26 80.5q5 17 14 52t21 79t25 93t25 93t22 79t16 52zM217 676q-21 0 -35.5 -14.5t-14.5 -35.5t14.5 -35.5t35.5 -14.5t35.5 14.5t14.5 35.5t-14.5 35.5t-35.5 14.5z" />
    <glyph glyph-name="k" unicode="k" horiz-adv-x="459" 
d="M284 0h114l2 28q-10 0 -21.5 7t-25.5 23.5t-32 44t-40 70.5l-46 90l148 123q35 29 55 41t40 13l1 28h-179l-4 -28q20 0 28 -9t8 -23q0 -8 -6 -19t-21 -25l-145 -125q27 -60 58.5 -119.5t65.5 -119.5zM167 605l-149 -592q0 -8 12.5 -11.5t27.5 -3.5q14 0 26.5 3.5
t14.5 11.5q34 145 65.5 266t56.5 209.5t40.5 140t16.5 58.5q0 3 -3.5 5t-8.5 2q-3 0 -9 -2l-132 -21l-4 -28h13q23 0 30.5 -9.5t2.5 -28.5z" />
    <glyph glyph-name="l" unicode="l" horiz-adv-x="262" 
d="M119 77q0 11 3 28t8 35q36 144 63 245t46 165.5t29 97t12 39.5q0 3 -3.5 5t-8.5 2q-3 0 -9 -2l-132 -21l-4 -28h13q44 0 33 -38l-116 -454q-11 -40 -14.5 -61.5t-3.5 -43.5q0 -31 15 -42t38 -11q18 0 38 7.5t38 22t31.5 34.5t19.5 45l-23 8q-7 -29 -23.5 -42.5
t-30.5 -13.5q-19 0 -19 23z" />
    <glyph glyph-name="m" unicode="m" horiz-adv-x="753" 
d="M437 337q5 16 7.5 32.5t2.5 29.5q0 38 -17.5 61.5t-54.5 23.5q-51 0 -100 -39t-94 -105q1 7 5.5 24.5t10 38.5t12 41.5t11.5 32.5l-7 7l-136 -28l-6 -29q27 0 39 -6.5t12 -26.5q0 -8 -7 -37l-86 -344q0 -8 12.5 -11.5t27.5 -3.5q14 0 26.5 3.5t14.5 11.5q11 55 22.5 104
t19.5 78q14 51 36 93t47 72t49.5 46t44.5 16q25 0 34.5 -19t2.5 -46l-85 -344q-2 -8 11.5 -11.5t28.5 -3.5q14 0 26.5 3.5t14.5 11.5q11 55 22.5 104t19.5 78q15 51 37 93t46.5 71.5t49 46t44.5 16.5q21 0 30 -11.5t9 -38.5q0 -20 -12 -58t-27 -83q-20 -60 -34 -109t-14 -77
q0 -26 13 -39t42 -13q18 0 38 7.5t38 22t31.5 34.5t19.5 45l-23 8q-7 -29 -23.5 -42.5t-30.5 -13.5q-11 0 -16 8t-5 21q0 25 11.5 59.5t21.5 65.5q9 26 19.5 52t18.5 50.5t13.5 45.5t5.5 36q0 43 -21.5 67.5t-58.5 24.5q-51 0 -101.5 -39t-88.5 -108z" />
    <glyph glyph-name="n" unicode="n" horiz-adv-x="518" 
d="M403 54q-11 0 -16 8t-5 21q0 12 3.5 27.5t8 30.5t9.5 29.5t9 25.5q9 26 19.5 54t19.5 54.5t15 49.5t6 38q0 43 -21.5 67.5t-58.5 24.5q-25 0 -54 -12t-57.5 -33.5t-55 -51t-47.5 -65.5q1 7 6 27.5t11 45t13 47.5t12 35l-7 7l-136 -28l-6 -29q27 0 39 -6.5t12 -26.5
q0 -8 -7 -37l-86 -344q0 -8 12.5 -11.5t27.5 -3.5q14 0 26.5 3.5t14.5 11.5q11 55 21 98t18 72q14 51 39 95t53.5 76t56.5 50t48 18q21 0 30 -11t9 -36q0 -22 -12 -60.5t-27 -83.5q-20 -60 -34 -109t-14 -77q0 -26 13 -39t42 -13q18 0 38 7.5t38 22t31.5 34.5t19.5 45l-23 8
q-7 -29 -23.5 -42.5t-30.5 -13.5z" />
    <glyph glyph-name="o" unicode="o" horiz-adv-x="447" 
d="M303 484q-58 0 -109 -30t-89.5 -78t-61 -108.5t-22.5 -122.5q0 -33 7 -62t22 -50.5t39.5 -34t60.5 -12.5q66 0 118.5 35t90 87t57.5 111.5t20 108.5q0 33 -8 61.5t-24 49.5t-41 33t-60 12zM261 436q40 0 61 -36.5t21 -100.5q0 -56 -13 -105t-35 -85t-50 -57t-58 -21
q-41 0 -57.5 37.5t-16.5 103.5q0 53 11.5 100.5t31.5 84t47 58t58 21.5z" />
    <glyph glyph-name="p" unicode="p" horiz-adv-x="494" 
d="M169 319q3 11 9 32.5t12.5 45.5t13.5 46t12 34l-7 7l-136 -28l-6 -29q27 0 39 -6.5t12 -26.5q0 -5 -3 -21.5t-12 -54.5q-6 -27 -15.5 -67t-20.5 -86t-22 -93t-21 -88t-17.5 -71.5t-10.5 -42.5q-5 -18 -16 -25t-31 -7v-28h203v28q-22 0 -35.5 1.5t-20.5 5t-9 9t-2 13.5
q0 16 6 47.5t17 83.5q8 -1 15.5 -1.5t16.5 -0.5q49 0 93.5 17.5t82.5 46.5t69 67.5t52.5 80t33.5 83.5t12 79q0 50 -24.5 82t-77.5 32q-34 0 -65 -13.5t-57 -36.5t-47.5 -53.5t-36.5 -63.5zM118 36l26 108q16 67 39 118t49 85.5t53 52.5t52 18q30 0 41.5 -24.5t11.5 -62.5
q0 -45 -17 -97t-48.5 -96.5t-76 -74t-100.5 -29.5h-15t-15 2z" />
    <glyph glyph-name="q" unicode="q" horiz-adv-x="481" 
d="M472 461q0 13 -13 13q-23 0 -44.5 5t-52.5 5q-59 0 -120 -32t-111 -84.5t-81.5 -119.5t-31.5 -138q0 -57 23 -90.5t77 -33.5q31 0 61.5 13.5t58 37t50 55t36.5 67.5l6 -2q-12 -42 -25 -85t-24 -80.5t-19 -66.5t-12 -42q-4 -14 -9.5 -22.5t-13.5 -13.5t-20.5 -7t-31.5 -2
v-28h199v28q-26 0 -34.5 7t-8.5 27q0 21 9.5 71t24.5 113t32.5 131t33 126t27 99t14.5 49zM384 444l-56 -200q-13 -47 -33 -82.5t-42.5 -59.5t-45 -36.5t-40.5 -12.5q-30 0 -44 25t-14 65q0 44 16.5 96.5t47.5 98.5t76 77t102 31h15q8 0 18 -2z" />
    <glyph glyph-name="r" unicode="r" horiz-adv-x="384" 
d="M309 421q7 0 7 -5t-4.5 -14t-4.5 -22q0 -20 10.5 -31.5t28.5 -11.5q15 0 26.5 7.5t19.5 19t12 26.5t4 30q0 25 -12.5 44.5t-40.5 19.5q-24 0 -46.5 -12.5t-43 -33t-40 -47.5t-37.5 -56q1 7 6 25.5t11 40.5t13 43t12 33l-7 7l-136 -28l-6 -29q27 0 39 -6.5t12 -26.5
q0 -8 -7 -37l-87 -344q0 -8 12.5 -11.5t27.5 -3.5q14 0 26.5 3.5t14.5 11.5q11 55 23 104t20 78q12 43 32 84t41.5 72.5t41.5 50.5t32 19z" />
    <glyph glyph-name="s" unicode="s" horiz-adv-x="384" 
d="M368 454q3 14 -13 14q-23 0 -53.5 8t-59.5 8q-33 0 -60.5 -10t-48 -27.5t-31.5 -42.5t-11 -55q0 -45 24 -79t53.5 -62t53.5 -53.5t24 -54.5q0 -36 -22 -58t-64 -22q-45 0 -72.5 30.5t-27.5 78.5q0 16 3 32h-28l-27 -143q-3 -18 9 -18q30 0 68.5 -7t68.5 -7q35 0 65.5 10
t53.5 29t36.5 45t13.5 59q0 27 -12 50.5t-29.5 44.5t-38 40.5t-38 38t-29.5 37t-12 37.5q0 31 18.5 51t52.5 20q22 0 37.5 -8.5t25.5 -22t15 -31t5 -35.5q0 -7 -0.5 -13.5t-1.5 -11.5q0 -3 4.5 -4.5t9.5 -1.5t9.5 1.5t5.5 4.5z" />
    <glyph glyph-name="t" unicode="t" horiz-adv-x="324" 
d="M291 126l-23 11q-20 -38 -43.5 -57.5t-49.5 -19.5q-34 0 -34 34q0 19 8.5 55.5t21 81.5t26.5 92.5t26 88.5h111l10 56h-105q12 45 41 132h-30q-28 -71 -71.5 -109.5t-115.5 -50.5l-6 -28h77l-75 -317q-2 -10 -3.5 -18.5t-1.5 -16.5q0 -36 18.5 -53t46.5 -17q40 0 70 17
t51 39.5t33.5 45t17.5 34.5z" />
    <glyph glyph-name="u" unicode="u" horiz-adv-x="506" 
d="M315 139q-8 -27 -11 -47.5t-3 -41.5q0 -23 13 -40t39 -17q19 0 39.5 8t38.5 22t31.5 34t19.5 45l-23 8q-6 -27 -23 -40.5t-31 -13.5q-22 0 -22 23q0 11 3 28.5t7 34.5l83 318q2 8 -11.5 12t-29.5 4q-14 0 -26.5 -4t-14.5 -12q-11 -57 -22.5 -101t-20.5 -73
q-17 -60 -40.5 -104t-48.5 -72.5t-48 -42t-38 -13.5q-42 0 -42 51q0 14 3.5 37.5t18.5 73.5l73 261l-7 7l-149 -29l-5 -29q27 0 40 -6.5t13 -26.5q0 -10 -5.5 -35t-14 -57t-18 -66t-17.5 -61q-8 -26 -14.5 -49.5t-6.5 -49.5q0 -37 22 -61t60 -24q26 0 53.5 12t53 32.5
t47 47.5t34.5 57z" />
    <glyph glyph-name="v" unicode="v" horiz-adv-x="391" 
d="M196 95q0 40 -6 91.5t-14.5 104t-18.5 99.5t-19 78h-116l-2 -28q15 1 28.5 -12t26.5 -59t26.5 -135.5t28.5 -241.5h32q23 36 48 71t51.5 73.5t53 82.5t52.5 96q24 51 24 86q0 42 -17.5 61t-43.5 19q-20 0 -33.5 -13t-13.5 -34q0 -16 6 -24.5t13 -15.5t13 -15t6 -24
t-11 -46.5t-29 -66.5t-40.5 -74.5t-44.5 -72.5z" />
    <glyph glyph-name="w" unicode="w" horiz-adv-x="616" 
d="M388 -8q23 36 48 71.5t51.5 74.5t53 83t52.5 96q23 49 23 84q0 42 -17 61.5t-43 19.5q-20 0 -33.5 -13.5t-13.5 -34.5q0 -16 6 -24.5t13 -15.5t13 -15t6 -24t-11 -46t-29 -66t-40.5 -74.5t-45.5 -71.5q0 40 -5.5 91.5t-14 103t-19 98.5t-20.5 78h-81l-2 -28q3 0 8 -2.5
t10 -9t9 -19t4 -33.5q0 -34 -11 -73.5t-28 -78t-37 -72.5t-38 -55q0 40 -6.5 91.5t-15.5 103t-19.5 98.5t-19.5 78h-106l-2 -28q5 1 16.5 -12t25.5 -59t30 -135.5t31 -241.5h31q40 62 83 125.5t88 144.5q8 -50 15.5 -117t8.5 -153h32z" />
    <glyph glyph-name="x" unicode="x" horiz-adv-x="462" 
d="M273 243q42 21 74 45.5t53.5 49.5t33 47.5t11.5 38.5q0 55 -50 55q-21 0 -33.5 -10t-12.5 -31q0 -10 3 -16t6 -11l6 -10t3 -13q0 -26 -27 -57t-74 -60q-16 47 -36 96t-46 101h-123l-2 -27q13 1 25 -2t27 -23t34.5 -63t47.5 -122q-52 -25 -87.5 -50.5t-57.5 -50.5t-32 -48
t-10 -44q0 -25 13.5 -37t37.5 -12q25 0 37.5 12.5t12.5 32.5q0 11 -3 17t-6 11.5t-6 11.5t-3 18q0 23 28 52.5t85 61.5q18 -52 28.5 -92t19.5 -67t20 -41t31 -14q29 0 53 12t42.5 30.5t30 40.5t14.5 43l-21 9q-1 -9 -6.5 -21t-14.5 -22.5t-21.5 -18t-26.5 -7.5q-13 0 -20 10
t-14 32t-16.5 57.5t-27.5 85.5z" />
    <glyph glyph-name="y" unicode="y" horiz-adv-x="391" 
d="M391 411q0 34 -18.5 52t-43.5 18q-20 0 -33 -13t-13 -33q0 -16 6 -24t12.5 -15t12.5 -15t6 -23q0 -16 -8 -50t-22 -74.5t-32.5 -82.5t-40.5 -75q2 41 -2 88.5t-14.5 98.5t-26.5 103.5t-39 101.5h-110l-2 -28q20 0 41.5 -35t39.5 -89.5t29.5 -121t11.5 -129.5
q0 -43 -10.5 -79t-26.5 -62t-35.5 -40.5t-37.5 -14.5q-23 0 -28 11.5t-4 24.5q-6 14 -26 14q-22 0 -35 -17t-13 -37t15.5 -37.5t51.5 -17.5q35 0 70 23t69.5 61t66.5 87t60.5 102t52 105.5t40.5 97.5t26.5 78t9.5 47z" />
    <glyph glyph-name="z" unicode="z" horiz-adv-x="438" 
d="M363 156q-9 -30 -22 -47t-30 -26t-38 -11t-47 -2h-113l337 379q2 2 2 6t-2 8.5t-6 4.5h-333l-33 -157h28q6 24 14 41t20.5 27t32.5 14.5t51 4.5h116l-334 -380q-2 -2 -2 -7q0 -4 1.5 -7.5t5.5 -3.5h350l31 156h-29z" />
    <glyph glyph-name="braceleft" unicode="{" horiz-adv-x="369" 
d="M239 -194q-52 10 -71 32.5t-19 49.5t11.5 53t25 54t25 59t11.5 67q0 45 -26 79.5t-86 45.5q39 5 71 21.5t56.5 40t41 52.5t23.5 58q5 19 6 38t1.5 38.5t1.5 39.5t6 41q10 39 42.5 68.5t98.5 40.5v25q-43 -5 -83 -23t-72 -44t-54.5 -58t-30.5 -65q-4 -19 -6 -40.5
t-3 -42.5t-2 -40.5t-5 -34.5q-11 -43 -44.5 -69.5t-93.5 -30.5l-8 -31q49 -4 70 -25.5t21 -51.5q0 -24 -11 -50.5t-24.5 -55.5t-24.5 -59.5t-11 -62.5t12 -57t32 -43t47.5 -29t58.5 -15z" />
    <glyph glyph-name="bar" unicode="|" horiz-adv-x="358" 
d="M249 678l-216 -868h98l216 868h-98z" />
    <glyph glyph-name="braceright" unicode="}" horiz-adv-x="369" 
d="M152 684q52 -10 71 -32.5t19 -49.5t-11.5 -53t-25 -54t-25 -59t-11.5 -67q0 -45 26 -79.5t86 -45.5q-39 -5 -71 -21.5t-56.5 -40t-41 -52.5t-23.5 -58q-5 -19 -6 -38t-1.5 -38.5t-1.5 -39.5t-6 -41q-10 -39 -42.5 -68.5t-98.5 -40.5v-25q43 5 83 23t72 44t54.5 58
t30.5 65q5 19 6.5 40.5t2.5 42.5t2 40.5t5 34.5q11 43 44.5 69.5t93.5 30.5l8 31q-49 4 -70 25.5t-21 51.5q0 24 11 50.5t24.5 55.5t24.5 59.5t11 62.5t-12 57t-32 43t-47.5 29t-58.5 15z" />
    <glyph glyph-name="asciitilde" unicode="~" horiz-adv-x="560" 
d="M555 342q-13 -36 -41 -62.5t-81 -26.5q-37 0 -65 14.5t-55 32.5t-57.5 32.5t-72.5 14.5q-26 0 -51.5 -8.5t-47.5 -26.5t-39.5 -45t-28.5 -63h27q16 37 43 62.5t72 25.5q36 0 66.5 -14.5t60.5 -32t61.5 -32t69.5 -14.5q29 0 55.5 10.5t48 29t38 45t24.5 58.5h-27z" />
    <glyph glyph-name="Euro" unicode="&#x20ac;" horiz-adv-x="609" 
d="M26 397h73q-8 -24 -13.5 -49.5t-9.5 -51.5h-68l-14 -41h78q-1 -10 -1 -19v-19q0 -61 17 -105.5t45.5 -73t64.5 -42t75 -13.5q85 0 152.5 46t102.5 143l-22 11q-27 -67 -75.5 -99t-109.5 -32q-28 0 -55.5 11t-49.5 35.5t-35.5 63t-14.5 93.5h161l22 41h-182q3 55 16 101
h202l22 40h-212q18 49 44 89t56.5 68t65 43t68.5 15q64 0 89 -31.5t25 -93.5q0 -10 -2 -31.5t-5 -39.5q0 -7 12 -7q5 0 8.5 1.5t4.5 5.5l43 209q0 6 -2.5 7.5t-7.5 2.5q-9 1 -19 4t-25 6.5t-37 6t-54 2.5q-57 0 -109.5 -19t-96.5 -53t-79.5 -81t-59.5 -104h-73z" />
    <glyph glyph-name="quotesinglbase" unicode="&#x201a;" horiz-adv-x="264" 
d="M-13 -174q54 27 88 55t53.5 56t26.5 54t7 47q0 35 -18.5 52.5t-47.5 17.5q-30 0 -50.5 -20t-20.5 -44q0 -19 11.5 -33.5t31.5 -14.5q22 0 22 -18q0 -20 -9.5 -37t-25 -32t-36.5 -29t-45 -26z" />
    <glyph glyph-name="quotedblbase" unicode="&#x201e;" horiz-adv-x="463" 
d="M-13 -174q54 27 88 55t53.5 56t26.5 54t7 47q0 35 -18.5 52.5t-47.5 17.5q-30 0 -50.5 -20t-20.5 -44q0 -19 11.5 -33.5t31.5 -14.5q22 0 22 -18q0 -20 -9.5 -37t-25 -32t-36.5 -29t-45 -26zM182 -174q54 27 88 55t53.5 56t26.5 54t7 47q0 35 -18.5 52.5t-47.5 17.5
q-30 0 -50.5 -20t-20.5 -44q0 -19 11.5 -33.5t31.5 -14.5q22 0 22 -18q0 -20 -9.5 -37t-25 -32t-36.5 -29t-45 -26z" />
    <glyph glyph-name="ellipsis" unicode="&#x2026;" horiz-adv-x="840" 
d="M145 126q-28 0 -47.5 -19.5t-19.5 -47.5t19.5 -47.5t47.5 -19.5t47.5 19.5t19.5 47.5t-19.5 47.5t-47.5 19.5zM412 126q-28 0 -47.5 -19.5t-19.5 -47.5t19.5 -47.5t47.5 -19.5t47.5 19.5t19.5 47.5t-19.5 47.5t-47.5 19.5zM679 126q-28 0 -47.5 -19.5t-19.5 -47.5
t19.5 -47.5t47.5 -19.5t47.5 19.5t19.5 47.5t-19.5 47.5t-47.5 19.5z" />
    <glyph glyph-name="dagger" unicode="&#x2020;" 
d="M170 -190q39 138 65.5 224t45.5 138.5t34 81t30 51.5q-39 36 -21 136q19 -2 38.5 -10t37.5 -17t34.5 -16.5t29.5 -7.5q29 0 48 18.5t24 41.5q6 23 -4.5 42t-39.5 19q-12 0 -31.5 -7t-42 -15t-46 -15.5t-42.5 -8.5q7 22 20.5 43.5t27.5 42t26.5 40t17.5 37.5q8 32 -7.5 48
t-38.5 16q-24 0 -47.5 -16t-31.5 -48q-4 -17 -2 -36.5t6 -40t6.5 -42t-1.5 -44.5q-19 0 -38 7.5t-36.5 16.5t-33 16t-26.5 7q-29 0 -48 -19t-25 -42q-5 -23 4 -41.5t37 -18.5q14 0 33.5 7t41.5 16t44 17t41 10q-14 -52 -37 -85t-51 -51q5 -24 6.5 -53.5t-5 -82t-23.5 -138
t-50 -221.5h30z" />
    <glyph glyph-name="daggerdbl" unicode="&#x2021;" 
d="M333 256q-13 12 -17.5 33t-4.5 46t4 52.5t9 53.5q19 -2 38.5 -10t37.5 -17t34.5 -16.5t29.5 -7.5q29 0 48 18.5t24 41.5q6 23 -4.5 42t-39.5 19q-12 0 -31.5 -7t-42 -15t-46 -15.5t-42.5 -8.5q7 22 20.5 43.5t27.5 42t26.5 40t17.5 37.5q8 32 -7.5 48t-38.5 16
q-24 0 -47.5 -16t-31.5 -48q-4 -17 -2 -36.5t6 -40t6.5 -42t-1.5 -44.5q-19 0 -38 7.5t-36.5 16.5t-33 16t-26.5 7q-29 0 -48 -19t-25 -42q-5 -23 4 -41.5t37 -18.5q14 0 33.5 7t41.5 16t44 17t41 10q-7 -25 -16.5 -52t-21.5 -51.5t-27.5 -45.5t-34.5 -35q23 -37 22.5 -91.5
t-14.5 -116.5q-19 2 -38.5 10t-37.5 17t-34 16.5t-30 7.5q-29 0 -48 -18.5t-24 -41.5q-6 -23 4.5 -42t39.5 -19q12 0 31.5 7t42 15t46 15.5t42.5 8.5q-6 -22 -19.5 -43.5t-28 -42t-26.5 -40t-17 -37.5q-8 -32 7.5 -48t38.5 -16q24 0 47.5 16t31.5 48q4 17 1.5 36.5t-6 40
t-6.5 42.5t1 44q19 0 38.5 -7.5t37 -16.5t33 -16t26.5 -7q29 0 47.5 19t24.5 42q5 23 -4 41.5t-37 18.5q-14 0 -33.5 -7t-41 -16t-44 -17t-41.5 -10q16 61 39.5 117t61.5 90z" />
    <glyph glyph-name="perthousand" unicode="&#x2030;" horiz-adv-x="1123" 
d="M699 678l-630 -678h66l630 678h-66zM256 353q38 0 74 18t64 48t45 68t17 77q0 24 -7.5 46.5t-23 40.5t-38.5 28.5t-54 10.5q-36 0 -72 -17t-64.5 -46.5t-46 -68.5t-17.5 -83q0 -64 31 -93t92 -29zM273 388q-31 0 -46.5 25.5t-15.5 63.5q0 37 8.5 69.5t23.5 56.5t35 38
t42 14q30 0 43 -23.5t13 -59.5q0 -40 -8 -74t-21.5 -58.5t-32.5 -38t-41 -13.5zM505 -10q38 0 74 18t64 48t45 68t17 77q0 24 -7.5 46.5t-23 40.5t-38.5 28.5t-54 10.5q-36 0 -72 -17t-64.5 -46.5t-46 -68.5t-17.5 -83q0 -64 31 -93t92 -29zM522 25q-31 0 -46.5 25.5
t-15.5 63.5q0 37 8.5 69.5t23.5 56.5t35 38t42 14q30 0 43 -23.5t13 -59.5q0 -40 -8 -74t-21.5 -58.5t-32.5 -38t-41 -13.5zM870 -10q38 0 74 18t64 48t45 68t17 77q0 24 -7.5 46.5t-23 40.5t-38.5 28.5t-54 10.5q-36 0 -72 -17t-64.5 -46.5t-46 -68.5t-17.5 -83
q0 -64 31 -93t92 -29zM887 25q-31 0 -46.5 25.5t-15.5 63.5q0 37 8.5 69.5t23.5 56.5t35 38t42 14q30 0 43 -23.5t13 -59.5q0 -40 -8 -74t-21.5 -58.5t-32.5 -38t-41 -13.5z" />
    <glyph glyph-name="Scaron" unicode="&#x160;" horiz-adv-x="558" 
d="M229 -16q65 0 112.5 14.5t79 40t46.5 61t15 76.5q0 33 -12 61.5t-32 53t-46.5 47t-55.5 44.5q-23 18 -42.5 34t-33.5 34t-22 38.5t-8 46.5q0 55 32.5 87t89.5 32q58 0 93 -31.5t35 -102.5q0 -11 -1 -21.5t-3 -21.5q0 -3 4 -5t9 -2q13 0 15 7l45 179q0 12 -11 12
t-25.5 4.5t-36 9t-51 8.5t-69.5 4q-51 0 -92 -16.5t-69.5 -44t-44 -62t-15.5 -70.5q0 -37 12.5 -66.5t32 -53.5t43.5 -43.5t46 -36.5q25 -19 45 -35.5t33.5 -34.5t20.5 -38t7 -46q0 -36 -13 -60t-33.5 -38t-46 -19.5t-50.5 -5.5q-66 0 -107.5 39.5t-41.5 111.5q0 19 3 40
h-29l-45 -182q-3 -11 11 -13q12 -1 31 -7t45 -12.5t58.5 -11.5t71.5 -5zM524 841l-22 3l-116 -74l-93 74l-22 -3l62 -118q3 -8 13 -11.5t22 -3.5t24.5 3.5t19.5 11.5z" />
    <glyph glyph-name="guilsinglleft" unicode="&#x2039;" horiz-adv-x="340" 
d="M169 251l178 199l-15 18l-247 -205q-21 -16 -23 -26q-3 -10 8 -27l145 -210l24 19z" />
    <glyph glyph-name="Zcaron" unicode="&#x17d;" horiz-adv-x="624" 
d="M-28 0h539l66 203l-27 3q-10 -31 -28 -60.5t-45 -52.5t-62.5 -37.5t-80.5 -14.5h-220l566 620l-1 17h-495l-67 -214h28q10 35 27.5 66.5t42 55.5t54.5 38t65 14h204l-568 -619zM577 841l-22 3l-116 -74l-93 74l-22 -3l62 -118q3 -8 13 -11.5t22 -3.5t24.5 3.5t19.5 11.5z
" />
    <glyph glyph-name="quoteleft" unicode="&#x2018;" horiz-adv-x="264" 
d="M311 709q-54 -27 -88 -55t-53.5 -56t-26.5 -54t-7 -47q0 -35 18.5 -52.5t47.5 -17.5q30 0 50.5 20t20.5 44q0 19 -11.5 33.5t-31.5 14.5q-22 0 -22 18q0 20 9.5 37t25 32t36.5 29t45 26z" />
    <glyph glyph-name="quoteright" unicode="&#x2019;" horiz-adv-x="264" 
d="M135 427q54 27 88 55.5t53.5 56t26.5 53.5t7 47q0 35 -18.5 52.5t-47.5 17.5q-30 0 -50.5 -20t-20.5 -44q0 -19 11.5 -33.5t31.5 -14.5q22 0 22 -18q0 -19 -9.5 -36.5t-25 -32.5t-36.5 -29t-45 -26z" />
    <glyph glyph-name="quotedblleft" unicode="&#x201c;" horiz-adv-x="463" 
d="M512 709q-54 -27 -88 -55t-53.5 -56t-26.5 -54t-7 -47q0 -35 18.5 -52.5t47.5 -17.5q30 0 50.5 20t20.5 44q0 19 -11.5 33.5t-31.5 14.5q-22 0 -22 18q0 20 9.5 37t25 32t36.5 29t45 26zM317 709q-54 -27 -88 -55t-53.5 -56t-26.5 -54t-7 -47q0 -35 18.5 -52.5
t47.5 -17.5q30 0 50.5 20t20.5 44q0 19 -11.5 33.5t-31.5 14.5q-22 0 -22 18q0 20 9.5 37t25 32t36.5 29t45 26z" />
    <glyph glyph-name="quotedblright" unicode="&#x201d;" horiz-adv-x="463" 
d="M135 427q54 27 88 55.5t53.5 56t26.5 53.5t7 47q0 35 -18.5 52.5t-47.5 17.5q-30 0 -50.5 -20t-20.5 -44q0 -19 11.5 -33.5t31.5 -14.5q22 0 22 -18q0 -19 -9.5 -36.5t-25 -32.5t-36.5 -29t-45 -26zM330 427q54 27 88 55.5t53.5 56t26.5 53.5t7 47q0 35 -18.5 52.5
t-47.5 17.5q-30 0 -50.5 -20t-20.5 -44q0 -19 11.5 -33.5t31.5 -14.5q22 0 22 -18q0 -19 -9.5 -36.5t-25 -32.5t-36.5 -29t-45 -26z" />
    <glyph glyph-name="bullet" unicode="&#x2022;" horiz-adv-x="373" 
d="M193 477q-29 0 -55 -11t-45 -30.5t-30 -45.5t-11 -56t11 -56t30 -45.5t45 -30.5t55 -11t55 11t45 30.5t30 45.5t11 56t-11 56t-30 45.5t-45 30.5t-55 11z" />
    <glyph glyph-name="endash" unicode="&#x2013;" horiz-adv-x="538" 
d="M531 224l13 51h-511l-13 -51h511z" />
    <glyph glyph-name="emdash" unicode="&#x2014;" horiz-adv-x="1022" 
d="M1011 224l13 51h-991l-13 -51h991z" />
    <glyph glyph-name="trademark" unicode="&#x2122;" horiz-adv-x="718" 
d="M153 658v-184q0 -20 -3.5 -26.5t-12.5 -6.5h-4v-15h80v15h-4q-9 0 -13 6.5t-4 26.5v184q26 0 42.5 -3.5t25.5 -10t12.5 -16.5t3.5 -24h18l-2 74h-238l-2 -74h17q0 14 3.5 24t12.5 16.5t25.5 10t42.5 3.5zM496 481q-6 16 -16 37.5t-18 40.5l-51 119h-72v-16h4q9 0 12.5 -6
t3.5 -26v-153q0 -23 -5.5 -29.5t-10.5 -6.5h-4v-15h84v15h-7q-20 0 -26.5 7t-6.5 30v121q0 19 -0.5 28t-0.5 11h3q1 -6 7.5 -22.5t24.5 -55.5l64 -134q1 -2 6 -2t6 2l58 135q12 29 18 44.5t11 32.5h3q0 -2 -0.5 -11t-0.5 -28v-127q0 -20 -4 -25.5t-13 -5.5h-6v-15h84v15h-4
q-9 0 -12.5 5.5t-3.5 25.5v158q0 20 3.5 26t12.5 6h4v16h-70l-49 -122q-8 -19 -15.5 -39t-12.5 -36z" />
    <glyph glyph-name="scaron" unicode="&#x161;" horiz-adv-x="384" 
d="M368 454q3 14 -13 14q-23 0 -53.5 8t-59.5 8q-33 0 -60.5 -10t-48 -27.5t-31.5 -42.5t-11 -55q0 -45 24 -79t53.5 -62t53.5 -53.5t24 -54.5q0 -36 -22 -58t-64 -22q-45 0 -72.5 30.5t-27.5 78.5q0 16 3 32h-28l-27 -143q-3 -18 9 -18q30 0 68.5 -7t68.5 -7q35 0 65.5 10
t53.5 29t36.5 45t13.5 59q0 27 -12 50.5t-29.5 44.5t-38 40.5t-38 38t-29.5 37t-12 37.5q0 31 18.5 51t52.5 20q22 0 37.5 -8.5t25.5 -22t15 -31t5 -35.5q0 -7 -0.5 -13.5t-1.5 -11.5q0 -3 4.5 -4.5t9.5 -1.5t9.5 1.5t5.5 4.5zM408 676l-20 4l-116 -86l-85 86l-22 -4
l55 -137q3 -9 12.5 -13t20.5 -4q12 0 23.5 4.5t19.5 13.5z" />
    <glyph glyph-name="guilsinglright" unicode="&#x203a;" horiz-adv-x="340" 
d="M195 251l-186 -232l14 -19l249 210q19 16 22 27q3 10 -9 26l-145 205l-25 -18z" />
    <glyph glyph-name="zcaron" unicode="&#x17e;" horiz-adv-x="438" 
d="M363 156q-9 -30 -22 -47t-30 -26t-38 -11t-47 -2h-113l337 379q2 2 2 6t-2 8.5t-6 4.5h-333l-33 -157h28q6 24 14 41t20.5 27t32.5 14.5t51 4.5h116l-334 -380q-2 -2 -2 -7q0 -4 1.5 -7.5t5.5 -3.5h350l31 156h-29zM442 676l-20 4l-116 -86l-85 86l-22 -4l55 -137
q3 -9 12.5 -13t20.5 -4q12 0 23.5 4.5t19.5 13.5z" />
    <glyph glyph-name="currency" unicode="&#xa4;" horiz-adv-x="576" 
d="M515 463l83 66l-31 41l-85 -69q-46 37 -111 37q-33 0 -66 -10t-63 -28l-54 70l-50 -41l51 -68q-27 -25 -47 -55.5t-28 -64.5q-8 -35 -4 -66t19 -56l-84 -68l30 -40l87 70q22 -19 49.5 -29.5t60.5 -10.5t66 10.5t63 27.5l51 -69l51 40l-50 68q28 25 48.5 56.5t28.5 66.5
t3.5 66t-18.5 56zM359 489q30 0 52 -11.5t34 -32t15 -47.5t-5 -57q-8 -31 -24 -58.5t-38.5 -47.5t-50 -32t-57.5 -12t-52 12t-34.5 32t-15 47.5t5.5 58.5q8 30 24 57t38.5 47.5t50 32t57.5 11.5z" />
    <glyph glyph-name="brokenbar" unicode="&#xa6;" horiz-adv-x="358" 
d="M106 106l-73 -296h98l73 296h-98zM281 412l66 266h-98l-66 -266h98z" />
    <glyph glyph-name="section" unicode="&#xa7;" horiz-adv-x="521" 
d="M314 58q31 8 57.5 24.5t45.5 40t30 52t11 59.5q0 36 -15.5 65.5t-38.5 56t-49.5 51t-49.5 48.5t-38.5 49t-15.5 53q0 25 8 42.5t22 28.5t32 16t37 5q31 0 44 -16.5t13 -38.5q0 -11 -2.5 -20t-2.5 -21q0 -24 16 -33.5t34.5 -6.5t34.5 18.5t16 40.5q0 32 -14 53t-36 33.5
t-48.5 18t-50.5 5.5q-33 0 -65.5 -11.5t-58.5 -32.5t-42 -50.5t-16 -65.5q0 -26 9 -48.5t23 -42.5q-69 -21 -106.5 -68t-37.5 -107q0 -35 15.5 -65t38.5 -56t49.5 -50.5t49.5 -48.5t38.5 -49t15.5 -53q0 -24 -8.5 -41.5t-22.5 -28.5t-31.5 -16.5t-35.5 -5.5q-35 0 -48.5 16
t-13.5 39q0 10 2.5 22.5t2.5 17.5q0 24 -16 34t-34.5 6t-34.5 -20.5t-16 -46.5q0 -26 13.5 -45t35 -31.5t48.5 -18.5t54 -6q33 0 66 11.5t59 32.5t42 50.5t16 65.5q0 26 -8.5 48t-22.5 41zM296 82q-23 27 -50 51t-50.5 48.5t-39 50.5t-15.5 57q0 15 4 33.5t13.5 35.5
t25 30.5t37.5 20.5q23 -27 50.5 -51t51 -48.5t39.5 -51t16 -58.5q0 -14 -4 -31.5t-14 -34.5t-25.5 -31t-38.5 -21z" />
    <glyph glyph-name="dieresis" unicode="&#xa8;" horiz-adv-x="459" 
d="M131 645q-21 0 -36 -15.5t-15 -37.5t15 -37.5t36 -15.5t36 15.5t15 37.5t-15 37.5t-36 15.5zM328 645q-21 0 -36 -15.5t-15 -37.5t15 -37.5t36 -15.5t36 15.5t15 37.5t-15 37.5t-36 15.5z" />
    <glyph glyph-name="copyright" unicode="&#xa9;" horiz-adv-x="796" 
d="M555 569q-9 0 -21.5 3.5t-29 7t-39 7t-51.5 3.5q-57 0 -103.5 -23t-78.5 -60t-49.5 -83.5t-17.5 -94.5t16 -92t45.5 -77t72.5 -53t97 -20q41 0 73 12t55 32.5t37 48t18 58.5l-20 5q-9 -48 -46 -81t-98 -33q-36 0 -67.5 12.5t-55 38.5t-36.5 66.5t-13 95.5q0 49 12.5 89
t35 68.5t53 44t65.5 15.5q51 0 84.5 -35t37.5 -107q0 -2 4.5 -3.5t8.5 -1.5q3 0 7 1.5t4 3.5v152zM398 687q-72 0 -136 -27.5t-111.5 -74.5t-75 -111t-27.5 -136t27.5 -136t75 -111t111.5 -74.5t136 -27.5t136 27.5t111.5 74.5t75 111t27.5 136t-27.5 136t-75 111
t-111.5 74.5t-136 27.5zM398 657q65 0 121.5 -24.5t98.5 -67.5t66 -101.5t24 -125.5t-24 -125.5t-66 -101.5t-98.5 -67.5t-121.5 -24.5q-64 0 -120.5 24.5t-98.5 67.5t-66.5 101.5t-24.5 125.5t24.5 125.5t66.5 101.5t98.5 67.5t120.5 24.5z" />
    <glyph glyph-name="guillemotleft" unicode="&#xab;" 
d="M169 251l178 199l-15 18l-247 -205q-21 -16 -23 -26q-3 -10 8 -27l145 -210l24 19zM362 251l178 199l-15 18l-247 -205q-21 -16 -23 -26q-3 -10 8 -27l145 -210l24 19z" />
    <glyph glyph-name="registered" unicode="&#xae;" horiz-adv-x="554" 
d="M235 458q5 -1 10 -1h12h8q21 -30 45.5 -61t45.5 -55h62v17q-12 2 -22.5 6.5t-29.5 25.5q-16 18 -32.5 38t-27.5 36q34 5 53.5 26.5t19.5 48.5q0 32 -24 52.5t-70 20.5h-110v-17h4q9 0 12.5 -7t3.5 -27v-168q0 -21 -3.5 -28t-12.5 -7h-4v-17h83v17h-7q-9 0 -12.5 7
t-3.5 28v65zM235 479v57q0 29 2 53q6 1 11.5 1.5t12.5 0.5q38 0 55.5 -15t17.5 -41q0 -31 -18 -44.5t-53 -13.5q-6 0 -13 0.5t-15 1.5zM277 664q41 0 76 -15.5t61 -42t40.5 -62.5t14.5 -77t-14.5 -77t-40.5 -62.5t-61 -42t-76 -15.5t-76 15.5t-61 42t-40.5 62.5t-14.5 77
t14.5 77t40.5 62.5t61 42t76 15.5zM277 694q-47 0 -88.5 -17.5t-72 -48.5t-48.5 -72.5t-18 -88.5t18 -88.5t48.5 -72t72 -48.5t88.5 -18t88.5 18t72.5 48.5t48.5 72t17.5 88.5t-17.5 88.5t-48.5 72.5t-72.5 48.5t-88.5 17.5z" />
    <glyph glyph-name="degree" unicode="&#xb0;" horiz-adv-x="408" 
d="M245 353q38 0 74 18t64 48t45 68t17 77q0 24 -7.5 46.5t-23 40.5t-38.5 28.5t-54 10.5q-36 0 -72 -17t-64.5 -46.5t-46 -68.5t-17.5 -83q0 -64 31 -93t92 -29zM262 388q-31 0 -46.5 25.5t-15.5 63.5q0 37 8.5 69.5t23.5 56.5t35 38t42 14q30 0 43 -23.5t13 -59.5
q0 -40 -8 -74t-21.5 -58.5t-32.5 -38t-41 -13.5z" />
    <glyph glyph-name="plusminus" unicode="&#xb1;" horiz-adv-x="576" 
d="M292 120l60 239h240l12 51h-240l60 239h-50l-60 -239h-238l-12 -51h238l-60 -239h50zM502 0l13 51h-528l-13 -51h528z" />
    <glyph glyph-name="acute" unicode="&#xb4;" horiz-adv-x="335" 
d="M382 655q5 4 7 7t2 8q0 8 -11 8h-75l-119 -150l24 -7z" />
    <glyph glyph-name="mu" unicode="&#xb5;" horiz-adv-x="525" 
d="M95 4q20 -14 48 -14q26 0 53.5 12t53 32.5t47 47.5t34.5 57q-8 -27 -11 -47.5t-3 -41.5q0 -23 13 -40t39 -17q19 0 39.5 8t38.5 22t31.5 34t19.5 45l-23 8q-6 -27 -23 -40.5t-31 -13.5q-22 0 -22 23q0 11 3 28.5t7 34.5l83 318q0 8 -13 12t-28 4q-14 0 -26.5 -4
t-14.5 -12q-11 -57 -22.5 -101t-20.5 -73q-17 -60 -40.5 -104t-48.5 -72.5t-48 -42t-38 -13.5q-42 0 -42 51q0 14 3.5 37.5t18.5 73.5l73 261l-7 7l-149 -29l-5 -29q27 0 40 -6.5t13 -26.5q0 -10 -5.5 -35t-14 -57t-18 -66t-17.5 -61q-9 -29 -22 -69.5t-27 -83.5t-28 -84
t-24 -71q-8 -26 -8 -41q0 -21 9.5 -30.5t21.5 -9.5q9 0 19.5 4.5t20 14t17.5 25t12 37.5z" />
    <glyph glyph-name="paragraph" unicode="&#xb6;" horiz-adv-x="463" 
d="M571 645l8 33h-243q-58 0 -102.5 -15.5t-76.5 -41t-52 -59.5t-29 -71q-10 -43 -7 -77t23.5 -58.5t61 -38.5t104.5 -16l-122 -491h42l208 835h87l-208 -835h42l208 835h56z" />
    <glyph glyph-name="periodcentered" unicode="&#xb7;" horiz-adv-x="254" 
d="M127 324q-28 0 -47.5 -19.5t-19.5 -47.5t19.5 -47.5t47.5 -19.5t47.5 19.5t19.5 47.5t-19.5 47.5t-47.5 19.5z" />
    <glyph glyph-name="periodcentered" unicode="&#x22c5;" horiz-adv-x="254" 
d="M127 324q-28 0 -47.5 -19.5t-19.5 -47.5t19.5 -47.5t47.5 -19.5t47.5 19.5t19.5 47.5t-19.5 47.5t-47.5 19.5z" />
    <glyph glyph-name="periodcentered" unicode="&#x2219;" horiz-adv-x="254" 
d="M127 324q-28 0 -47.5 -19.5t-19.5 -47.5t19.5 -47.5t47.5 -19.5t47.5 19.5t19.5 47.5t-19.5 47.5t-47.5 19.5z" />
    <glyph glyph-name="cedilla" unicode="&#xb8;" horiz-adv-x="338" 
d="M211 -83q-6 -8 -6 -11q0 -10 14 -10q26 0 39 -11t13 -25q0 -18 -18.5 -34t-56.5 -16q-17 0 -25 2t-15 5l-15 -22q17 -11 58 -11q37 0 63 8t43 20.5t25 28.5t8 32q0 27 -20.5 48t-55.5 21l50 58h-36z" />
    <glyph glyph-name="guillemotright" unicode="&#xbb;" 
d="M380 217l-179 -199l16 -18l247 205q21 16 23 26q3 11 -9 27l-144 210l-24 -19zM187 217l-179 -199l16 -18l247 205q21 16 23 26q3 11 -9 27l-144 210l-24 -19z" />
    <glyph glyph-name="Aacute" unicode="&#xc1;" horiz-adv-x="624" 
d="M370 558q2 -29 6 -63t8 -63l20 -162h-215l107 165q11 16 22 34t21 35t18 31t13 23zM424 109q1 -8 1.5 -14.5t0.5 -11.5q0 -32 -16.5 -43.5t-61.5 -11.5v-28h248v28q-19 0 -31 5t-21 31t-18.5 80t-24.5 151l-58 391h-37l-253 -387q-58 -90 -97 -143.5t-63.5 -82t-39.5 -37
t-25 -8.5v-28h245v28q-51 0 -70.5 8t-19.5 28q0 27 13.5 53t39.5 67l30 48h244zM581 815q10 7 10 13q0 8 -12 8h-87l-131 -129l25 -6z" />
    <glyph glyph-name="Acircumflex" unicode="&#xc2;" horiz-adv-x="624" 
d="M370 558q2 -29 6 -63t8 -63l20 -162h-215l107 165q11 16 22 34t21 35t18 31t13 23zM424 109q1 -8 1.5 -14.5t0.5 -11.5q0 -32 -16.5 -43.5t-61.5 -11.5v-28h248v28q-19 0 -31 5t-21 31t-18.5 80t-24.5 151l-58 391h-37l-253 -387q-58 -90 -97 -143.5t-63.5 -82t-39.5 -37
t-25 -8.5v-28h245v28q-51 0 -70.5 8t-19.5 28q0 27 13.5 53t39.5 67l30 48h244zM296 711l22 -3l116 74l93 -74l22 3l-62 118q-3 8 -13 11.5t-22 3.5t-24.5 -3.5t-19.5 -11.5z" />
    <glyph glyph-name="Adieresis" unicode="&#xc4;" horiz-adv-x="624" 
d="M370 558q2 -29 6 -63t8 -63l20 -162h-215l107 165q11 16 22 34t21 35t18 31t13 23zM424 109q1 -8 1.5 -14.5t0.5 -11.5q0 -32 -16.5 -43.5t-61.5 -11.5v-28h248v28q-19 0 -31 5t-21 31t-18.5 80t-24.5 151l-58 391h-37l-253 -387q-58 -90 -97 -143.5t-63.5 -82t-39.5 -37
t-25 -8.5v-28h245v28q-51 0 -70.5 8t-19.5 28q0 27 13.5 53t39.5 67l30 48h244zM326 814q-21 0 -36 -15.5t-15 -37.5t15 -37.5t36 -15.5t36 15.5t15 37.5t-15 37.5t-36 15.5zM523 814q-21 0 -36 -15.5t-15 -37.5t15 -37.5t36 -15.5t36 15.5t15 37.5t-15 37.5t-36 15.5z" />
    <glyph glyph-name="Ccedilla" unicode="&#xc7;" horiz-adv-x="609" 
d="M263 -17l-52 -66q-6 -8 -6 -11q0 -10 14 -10q26 0 39 -11t13 -25q0 -18 -18.5 -34t-56.5 -16q-17 0 -25 2t-15 5l-15 -22q17 -11 58 -11q37 0 63 8t43 20.5t25 28.5t8 32q0 27 -20.5 48t-55.5 21l36 42q86 6 152.5 52t102.5 136l-24 11q-30 -67 -83 -99t-121 -32
q-32 0 -62.5 11.5t-54.5 37t-38.5 65t-14.5 96.5q0 85 25.5 156.5t66.5 123.5t93 81t104 29q71 0 98.5 -31.5t27.5 -93.5q0 -10 -2 -31.5t-6 -39.5q0 -7 13 -7q5 0 9.5 1.5t5.5 5.5l47 209q0 6 -3 7.5t-8 2.5q-10 1 -21 4t-27.5 6.5t-40.5 6t-60 2.5q-90 0 -168 -38
t-135.5 -103t-90.5 -151.5t-33 -184.5q0 -60 18 -103.5t47.5 -72t68 -43t79.5 -15.5z" />
    <glyph glyph-name="Eacute" unicode="&#xc9;" horiz-adv-x="617" 
d="M230 366q17 68 35 135.5t37 137.5h121q80 0 116 -21t36 -69q0 -11 -2 -22.5t-5 -24.5h28l40 176h-484v-28h10q14 0 22 -5t8 -22q0 -9 -2.5 -22t-7.5 -32l-113 -455q-13 -52 -26.5 -69t-36.5 -17h-10v-28h500l59 201h-28q-16 -44 -36.5 -75t-49.5 -50.5t-70 -28.5t-97 -9
q-65 0 -88.5 10t-23.5 34q0 11 5 31l54 217h80q51 0 69.5 -12.5t18.5 -40.5q0 -11 -2 -23.5t-6 -28.5h28l60 244h-28q-9 -35 -21 -55.5t-28.5 -31t-36.5 -13.5t-45 -3h-80zM585 815q10 7 10 13q0 8 -12 8h-87l-131 -129l25 -6z" />
    <glyph glyph-name="Edieresis" unicode="&#xcb;" horiz-adv-x="617" 
d="M230 366q17 68 35 135.5t37 137.5h121q80 0 116 -21t36 -69q0 -11 -2 -22.5t-5 -24.5h28l40 176h-484v-28h10q14 0 22 -5t8 -22q0 -9 -2.5 -22t-7.5 -32l-113 -455q-13 -52 -26.5 -69t-36.5 -17h-10v-28h500l59 201h-28q-16 -44 -36.5 -75t-49.5 -50.5t-70 -28.5t-97 -9
q-65 0 -88.5 10t-23.5 34q0 11 5 31l54 217h80q51 0 69.5 -12.5t18.5 -40.5q0 -11 -2 -23.5t-6 -28.5h28l60 244h-28q-9 -35 -21 -55.5t-28.5 -31t-36.5 -13.5t-45 -3h-80zM321 814q-21 0 -36 -15.5t-15 -37.5t15 -37.5t36 -15.5t36 15.5t15 37.5t-15 37.5t-36 15.5z
M518 814q-21 0 -36 -15.5t-15 -37.5t15 -37.5t36 -15.5t36 15.5t15 37.5t-15 37.5t-36 15.5z" />
    <glyph glyph-name="Iacute" unicode="&#xcd;" horiz-adv-x="324" 
d="M282 564q7 26 13 42.5t13.5 26.5t16 13.5t19.5 3.5h10v28h-203v-28h10q14 0 21.5 -6.5t7.5 -23.5q0 -18 -9 -56l-113 -450q-13 -52 -26 -69t-36 -17h-10v-28h200v28h-10q-14 0 -21.5 6.5t-7.5 23.5q0 19 9 56q29 113 57.5 225t58.5 225zM409 815q10 7 10 13q0 8 -12 8
h-87l-131 -129l25 -6z" />
    <glyph glyph-name="Icircumflex" unicode="&#xce;" horiz-adv-x="324" 
d="M282 564q7 26 13 42.5t13.5 26.5t16 13.5t19.5 3.5h10v28h-203v-28h10q14 0 21.5 -6.5t7.5 -23.5q0 -18 -9 -56l-113 -450q-13 -52 -26 -69t-36 -17h-10v-28h200v28h-10q-14 0 -21.5 6.5t-7.5 23.5q0 19 9 56q29 113 57.5 225t58.5 225zM137 711l22 -3l116 74l93 -74
l22 3l-62 118q-3 8 -13 11.5t-22 3.5t-24.5 -3.5t-19.5 -11.5z" />
    <glyph glyph-name="Oacute" unicode="&#xd3;" horiz-adv-x="703" 
d="M313 594q29 27 66 42.5t73 15.5q53 0 87.5 -34.5t34.5 -109.5q0 -62 -12 -125.5t-33 -121t-51 -106.5t-66 -81q-26 -23 -59.5 -37t-65.5 -14q-23 0 -45 9t-38.5 29t-26.5 52t-10 77q0 54 9 110t27 109.5t45.5 101t64.5 83.5zM682 439q0 63 -18.5 110.5t-49.5 79.5t-72 48
t-86 16q-92 0 -176 -51q-48 -29 -89 -71t-71.5 -94.5t-47.5 -115t-17 -133.5q0 -65 19.5 -111.5t52 -76t74.5 -43.5t87 -14q44 0 87 12t80 35q54 32 96 79.5t71 102t44.5 113.5t15.5 114zM596 818q10 7 10 13q0 8 -12 8h-87l-131 -129l25 -6z" />
    <glyph glyph-name="Ocircumflex" unicode="&#xd4;" horiz-adv-x="703" 
d="M313 594q29 27 66 42.5t73 15.5q53 0 87.5 -34.5t34.5 -109.5q0 -62 -12 -125.5t-33 -121t-51 -106.5t-66 -81q-26 -23 -59.5 -37t-65.5 -14q-23 0 -45 9t-38.5 29t-26.5 52t-10 77q0 54 9 110t27 109.5t45.5 101t64.5 83.5zM682 439q0 63 -18.5 110.5t-49.5 79.5t-72 48
t-86 16q-92 0 -176 -51q-48 -29 -89 -71t-71.5 -94.5t-47.5 -115t-17 -133.5q0 -65 19.5 -111.5t52 -76t74.5 -43.5t87 -14q44 0 87 12t80 35q54 32 96 79.5t71 102t44.5 113.5t15.5 114zM329 711l22 -3l116 74l93 -74l22 3l-62 118q-3 8 -13 11.5t-22 3.5t-24.5 -3.5
t-19.5 -11.5z" />
    <glyph glyph-name="Odieresis" unicode="&#xd6;" horiz-adv-x="703" 
d="M313 594q29 27 66 42.5t73 15.5q53 0 87.5 -34.5t34.5 -109.5q0 -62 -12 -125.5t-33 -121t-51 -106.5t-66 -81q-26 -23 -59.5 -37t-65.5 -14q-23 0 -45 9t-38.5 29t-26.5 52t-10 77q0 54 9 110t27 109.5t45.5 101t64.5 83.5zM682 439q0 63 -18.5 110.5t-49.5 79.5t-72 48
t-86 16q-92 0 -176 -51q-48 -29 -89 -71t-71.5 -94.5t-47.5 -115t-17 -133.5q0 -65 19.5 -111.5t52 -76t74.5 -43.5t87 -14q44 0 87 12t80 35q54 32 96 79.5t71 102t44.5 113.5t15.5 114zM361 814q-21 0 -36 -15.5t-15 -37.5t15 -37.5t36 -15.5t36 15.5t15 37.5t-15 37.5
t-36 15.5zM558 814q-21 0 -36 -15.5t-15 -37.5t15 -37.5t36 -15.5t36 15.5t15 37.5t-15 37.5t-36 15.5z" />
    <glyph glyph-name="multiply" unicode="&#xd7;" horiz-adv-x="576" 
d="M100 137l-26 36l211 169l-126 168l45 36l126 -168l211 169l26 -36l-211 -169l128 -169l-45 -36l-128 169z" />
    <glyph glyph-name="Uacute" unicode="&#xda;" horiz-adv-x="701" 
d="M682 552q8 30 19.5 49.5t23.5 30t23 14.5t17 4h10v28h-221v-28h17q33 0 48 -15t15 -46q0 -25 -9 -61l-73 -294q-12 -49 -37 -84.5t-56.5 -58.5t-68.5 -33.5t-73 -10.5q-31 0 -58.5 7.5t-48.5 23.5t-33.5 41t-12.5 59q0 28 7 56l82 330q13 52 26.5 69t36.5 17h30v28h-220
v-28h10q14 0 21 -6t7 -23q0 -19 -9 -57l-86 -346q-7 -27 -7 -53q0 -43 18.5 -76.5t49 -57t71 -35.5t83.5 -12q50 0 100 16t93.5 48t77 79.5t49.5 111.5zM607 815q10 7 10 13q0 8 -12 8h-87l-131 -129l25 -6z" />
    <glyph glyph-name="Udieresis" unicode="&#xdc;" horiz-adv-x="701" 
d="M682 552q8 30 19.5 49.5t23.5 30t23 14.5t17 4h10v28h-221v-28h17q33 0 48 -15t15 -46q0 -25 -9 -61l-73 -294q-12 -49 -37 -84.5t-56.5 -58.5t-68.5 -33.5t-73 -10.5q-31 0 -58.5 7.5t-48.5 23.5t-33.5 41t-12.5 59q0 28 7 56l82 330q13 52 26.5 69t36.5 17h30v28h-220
v-28h10q14 0 21 -6t7 -23q0 -19 -9 -57l-86 -346q-7 -27 -7 -53q0 -43 18.5 -76.5t49 -57t71 -35.5t83.5 -12q50 0 100 16t93.5 48t77 79.5t49.5 111.5zM361 814q-21 0 -36 -15.5t-15 -37.5t15 -37.5t36 -15.5t36 15.5t15 37.5t-15 37.5t-36 15.5zM558 814q-21 0 -36 -15.5
t-15 -37.5t15 -37.5t36 -15.5t36 15.5t15 37.5t-15 37.5t-36 15.5z" />
    <glyph glyph-name="Yacute" unicode="&#xdd;" horiz-adv-x="628" 
d="M591 815q10 7 10 13q0 8 -12 8h-87l-131 -129l25 -6zM369 284l230 259q32 36 53.5 57t37 32t28.5 14.5t27 3.5v28h-211v-28q55 0 55 -32q0 -22 -31 -59l-201 -229l-101 244q-9 21 -9 35q0 40 66 41v28h-243v-28q35 0 56 -33t44 -93l100 -246l-41 -164q-13 -52 -26.5 -69
t-36.5 -17h-16v-28h212v28h-16q-14 0 -21 6t-7 23q0 20 9 57z" />
    <glyph glyph-name="germandbls" unicode="&#xdf;" horiz-adv-x="505" 
d="M485 600q0 50 -36 72t-90 22q-67 0 -122.5 -51t-85.5 -156q-6 -22 -28 -33.5t-51 -13.5l-6 -28h69l-104 -451q-8 -34 -14 -56t-11.5 -34.5t-12 -17t-14.5 -4.5q-12 0 -16.5 9t-4.5 26q0 19 -10.5 28t-24.5 9q-25 0 -37 -16.5t-12 -37.5t15.5 -39t47.5 -18q47 0 78 19
t51.5 50t33 70t22.5 80q14 57 30.5 120.5t32 124t29 112t22.5 82.5q0 29 5 61t18 60t34 46t54 18q29 0 46 -16.5t17 -45.5q0 -40 -20 -68t-44 -52.5t-44 -50.5t-20 -63q0 -35 19.5 -69.5t42.5 -68t42.5 -66t19.5 -63.5q0 -32 -17 -50.5t-51 -18.5q-31 0 -41 15t-10 42
q0 23 -12 34.5t-27 11.5q-17 0 -31 -13.5t-14 -39.5q0 -23 10.5 -39.5t28.5 -26.5t40.5 -14.5t46.5 -4.5q34 0 61 11.5t46.5 30.5t30 44t10.5 51q0 36 -19 71t-42.5 68.5t-42.5 65.5t-19 62q0 23 9.5 39t24.5 30t31.5 27.5t31.5 29t24.5 36t9.5 48.5z" />
    <glyph glyph-name="aacute" unicode="&#xe1;" horiz-adv-x="504" 
d="M384 444l-56 -200q-13 -47 -33 -82.5t-42.5 -59.5t-45 -36.5t-40.5 -12.5q-30 0 -44 25t-14 65q0 44 16.5 96.5t47.5 98.5t76 77t102 31h15q8 0 18 -2zM477 102l-23 8q-6 -28 -22.5 -42t-31.5 -14q-9 0 -15 6t-6 17q0 17 2 32t7 34q25 100 44.5 176t39.5 142q0 13 -13 13
q-23 0 -44.5 5t-52.5 5q-59 0 -120 -32t-111 -84.5t-81.5 -119.5t-31.5 -138q0 -57 23 -90.5t77 -33.5q31 0 61.5 13.5t58 37t50 55t36.5 67.5l6 -2q-20 -71 -20 -110q0 -26 13 -40t34 -14q16 0 35 8t36 22t30.5 34t18.5 45zM493 655q5 4 7 7t2 8q0 8 -11 8h-75l-119 -150
l24 -7z" />
    <glyph glyph-name="acircumflex" unicode="&#xe2;" horiz-adv-x="504" 
d="M384 444l-56 -200q-13 -47 -33 -82.5t-42.5 -59.5t-45 -36.5t-40.5 -12.5q-30 0 -44 25t-14 65q0 44 16.5 96.5t47.5 98.5t76 77t102 31h15q8 0 18 -2zM477 102l-23 8q-6 -28 -22.5 -42t-31.5 -14q-9 0 -15 6t-6 17q0 17 2 32t7 34q25 100 44.5 176t39.5 142q0 13 -13 13
q-23 0 -44.5 5t-52.5 5q-59 0 -120 -32t-111 -84.5t-81.5 -119.5t-31.5 -138q0 -57 23 -90.5t77 -33.5q31 0 61.5 13.5t58 37t50 55t36.5 67.5l6 -2q-20 -71 -20 -110q0 -26 13 -40t34 -14q16 0 35 8t36 22t30.5 34t18.5 45zM244 529l21 -4l115 86l86 -86l21 4l-54 137
q-4 9 -13.5 13t-20.5 4q-12 0 -23.5 -4.5t-19.5 -13.5z" />
    <glyph glyph-name="adieresis" unicode="&#xe4;" horiz-adv-x="504" 
d="M384 444l-56 -200q-13 -47 -33 -82.5t-42.5 -59.5t-45 -36.5t-40.5 -12.5q-30 0 -44 25t-14 65q0 44 16.5 96.5t47.5 98.5t76 77t102 31h15q8 0 18 -2zM477 102l-23 8q-6 -28 -22.5 -42t-31.5 -14q-9 0 -15 6t-6 17q0 17 2 32t7 34q25 100 44.5 176t39.5 142q0 13 -13 13
q-23 0 -44.5 5t-52.5 5q-59 0 -120 -32t-111 -84.5t-81.5 -119.5t-31.5 -138q0 -57 23 -90.5t77 -33.5q31 0 61.5 13.5t58 37t50 55t36.5 67.5l6 -2q-20 -71 -20 -110q0 -26 13 -40t34 -14q16 0 35 8t36 22t30.5 34t18.5 45zM253 645q-21 0 -36 -15.5t-15 -37.5t15 -37.5
t36 -15.5t36 15.5t15 37.5t-15 37.5t-36 15.5zM450 645q-21 0 -36 -15.5t-15 -37.5t15 -37.5t36 -15.5t36 15.5t15 37.5t-15 37.5t-36 15.5z" />
    <glyph glyph-name="ccedilla" unicode="&#xe7;" horiz-adv-x="392" 
d="M396 401q0 16 -5 31t-17 26.5t-30.5 18.5t-45.5 7q-50 0 -98.5 -29t-87 -76t-62 -108t-23.5 -124q0 -75 29.5 -112.5t81.5 -44.5l-57 -73q-6 -8 -6 -11q0 -10 14 -10q26 0 39 -11t13 -25q0 -18 -18.5 -34t-56.5 -16q-17 0 -25 2t-15 5l-15 -22q17 -11 58 -11q37 0 63 8
t43 20.5t25 28.5t8 32q0 27 -20.5 48t-55.5 21l39 46q59 3 105 42t69 117l-23 9q-16 -50 -50 -71.5t-70 -21.5q-39 0 -67 27t-28 87t15.5 108t39 81t51 51t50.5 18t30.5 -12t7.5 -44q0 -26 12 -36t29 -10q20 0 37 15.5t17 52.5z" />
    <glyph glyph-name="eacute" unicode="&#xe9;" horiz-adv-x="404" 
d="M269 439q23 0 35.5 -12.5t12.5 -30.5q0 -14 -10 -33.5t-33.5 -37t-62.5 -29.5t-96 -12q13 41 31 70.5t39 48t42.5 27.5t41.5 9zM110 259q9 -1 18 -1h18q73 0 122.5 15t80 37t43.5 47.5t13 47.5q0 32 -21.5 55.5t-65.5 23.5q-48 0 -89 -16.5t-74 -44t-58 -63.5
t-41.5 -74.5t-25 -76.5t-8.5 -71q0 -39 11 -68t29 -48t42 -28t50 -9q27 0 54.5 9t52 27t43 43.5t27.5 58.5l-20 8q-18 -35 -50.5 -53.5t-64.5 -18.5q-19 0 -36.5 6.5t-30.5 20t-21 34.5t-8 50q0 30 3 51.5t7 37.5zM435 655q5 4 7 7t2 8q0 8 -11 8h-75l-119 -150l24 -7z" />
    <glyph glyph-name="edieresis" unicode="&#xeb;" horiz-adv-x="404" 
d="M269 439q23 0 35.5 -12.5t12.5 -30.5q0 -14 -10 -33.5t-33.5 -37t-62.5 -29.5t-96 -12q13 41 31 70.5t39 48t42.5 27.5t41.5 9zM110 259q9 -1 18 -1h18q73 0 122.5 15t80 37t43.5 47.5t13 47.5q0 32 -21.5 55.5t-65.5 23.5q-48 0 -89 -16.5t-74 -44t-58 -63.5
t-41.5 -74.5t-25 -76.5t-8.5 -71q0 -39 11 -68t29 -48t42 -28t50 -9q27 0 54.5 9t52 27t43 43.5t27.5 58.5l-20 8q-18 -35 -50.5 -53.5t-64.5 -18.5q-19 0 -36.5 6.5t-30.5 20t-21 34.5t-8 50q0 30 3 51.5t7 37.5zM210 645q-21 0 -36 -15.5t-15 -37.5t15 -37.5t36 -15.5
t36 15.5t15 37.5t-15 37.5t-36 15.5zM407 645q-21 0 -36 -15.5t-15 -37.5t15 -37.5t36 -15.5t36 15.5t15 37.5t-15 37.5t-36 15.5z" />
    <glyph glyph-name="iacute" unicode="&#xed;" horiz-adv-x="262" 
d="M230 477l-7 7l-150 -28l-6 -29q27 0 39 -7t12 -24q0 -10 -6 -35.5t-14.5 -59t-18.5 -71.5t-18.5 -73.5t-14.5 -65t-6 -45.5q0 -29 14 -41t37 -12q18 0 38.5 7.5t38.5 22t32.5 34.5t20.5 45l-23 8q-7 -29 -23.5 -42.5t-30.5 -13.5q-19 0 -19 23q0 11 6 39t15.5 65
t21.5 79.5t23.5 83.5t22 76t16.5 57zM302 655q5 4 7 7t2 8q0 8 -11 8h-75l-119 -150l24 -7z" />
    <glyph glyph-name="icircumflex" unicode="&#xee;" horiz-adv-x="262" 
d="M230 477l-7 7l-150 -28l-6 -29q27 0 39 -7t12 -24q0 -10 -6 -35.5t-14.5 -59t-18.5 -71.5t-18.5 -73.5t-14.5 -65t-6 -45.5q0 -29 14 -41t37 -12q18 0 38.5 7.5t38.5 22t32.5 34.5t20.5 45l-23 8q-7 -29 -23.5 -42.5t-30.5 -13.5q-19 0 -19 23q0 11 6 39t15.5 65
t21.5 79.5t23.5 83.5t22 76t16.5 57zM61 529l21 -4l115 86l86 -86l21 4l-54 137q-4 9 -13.5 13t-20.5 4q-12 0 -23.5 -4.5t-19.5 -13.5z" />
    <glyph glyph-name="oacute" unicode="&#xf3;" horiz-adv-x="447" 
d="M303 484q-58 0 -109 -30t-89.5 -78t-61 -108.5t-22.5 -122.5q0 -33 7 -62t22 -50.5t39.5 -34t60.5 -12.5q66 0 118.5 35t90 87t57.5 111.5t20 108.5q0 33 -8 61.5t-24 49.5t-41 33t-60 12zM261 436q40 0 61 -36.5t21 -100.5q0 -56 -13 -105t-35 -85t-50 -57t-58 -21
q-41 0 -57.5 37.5t-16.5 103.5q0 53 11.5 100.5t31.5 84t47 58t58 21.5zM433 655q5 4 7 7t2 8q0 8 -11 8h-75l-119 -150l24 -7z" />
    <glyph glyph-name="ocircumflex" unicode="&#xf4;" horiz-adv-x="447" 
d="M303 484q-58 0 -109 -30t-89.5 -78t-61 -108.5t-22.5 -122.5q0 -33 7 -62t22 -50.5t39.5 -34t60.5 -12.5q66 0 118.5 35t90 87t57.5 111.5t20 108.5q0 33 -8 61.5t-24 49.5t-41 33t-60 12zM261 436q40 0 61 -36.5t21 -100.5q0 -56 -13 -105t-35 -85t-50 -57t-58 -21
q-41 0 -57.5 37.5t-16.5 103.5q0 53 11.5 100.5t31.5 84t47 58t58 21.5zM185 529l21 -4l115 86l86 -86l21 4l-54 137q-4 9 -13.5 13t-20.5 4q-12 0 -23.5 -4.5t-19.5 -13.5z" />
    <glyph glyph-name="odieresis" unicode="&#xf6;" horiz-adv-x="447" 
d="M303 484q-58 0 -109 -30t-89.5 -78t-61 -108.5t-22.5 -122.5q0 -33 7 -62t22 -50.5t39.5 -34t60.5 -12.5q66 0 118.5 35t90 87t57.5 111.5t20 108.5q0 33 -8 61.5t-24 49.5t-41 33t-60 12zM261 436q40 0 61 -36.5t21 -100.5q0 -56 -13 -105t-35 -85t-50 -57t-58 -21
q-41 0 -57.5 37.5t-16.5 103.5q0 53 11.5 100.5t31.5 84t47 58t58 21.5zM214 645q-21 0 -36 -15.5t-15 -37.5t15 -37.5t36 -15.5t36 15.5t15 37.5t-15 37.5t-36 15.5zM411 645q-21 0 -36 -15.5t-15 -37.5t15 -37.5t36 -15.5t36 15.5t15 37.5t-15 37.5t-36 15.5z" />
    <glyph glyph-name="divide" unicode="&#xf7;" horiz-adv-x="540" 
d="M531 224l13 51h-511l-13 -51h511zM265 162q-28 0 -52 -19.5t-31 -47.5q-8 -28 7 -47.5t43 -19.5t52 19.5t32 47.5q7 28 -8 47.5t-43 19.5zM343 474q-28 0 -52 -19.5t-32 -47.5q-7 -28 8 -47.5t43 -19.5t52 19.5t31 47.5q8 28 -7 47.5t-43 19.5z" />
    <glyph glyph-name="rcaron" unicode="&#x159;" horiz-adv-x="384" 
d="M309 421q7 0 7 -5t-4.5 -14t-4.5 -22q0 -20 10.5 -31.5t28.5 -11.5q15 0 26.5 7.5t19.5 19t12 26.5t4 30q0 25 -12.5 44.5t-40.5 19.5q-24 0 -46.5 -12.5t-43 -33t-40 -47.5t-37.5 -56q1 7 6 25.5t11 40.5t13 43t12 33l-7 7l-136 -28l-6 -29q27 0 39 -6.5t12 -26.5
q0 -8 -7 -37l-87 -344q0 -8 12.5 -11.5t27.5 -3.5q14 0 26.5 3.5t14.5 11.5q11 55 23 104t20 78q12 43 32 84t41.5 72.5t41.5 50.5t32 19zM431 676l-20 4l-116 -86l-85 86l-22 -4l55 -137q3 -9 12.5 -13t20.5 -4q12 0 23.5 4.5t19.5 13.5z" />
    <glyph glyph-name="uacute" unicode="&#xfa;" horiz-adv-x="506" 
d="M315 139q-8 -27 -11 -47.5t-3 -41.5q0 -23 13 -40t39 -17q19 0 39.5 8t38.5 22t31.5 34t19.5 45l-23 8q-6 -27 -23 -40.5t-31 -13.5q-22 0 -22 23q0 11 3 28.5t7 34.5l83 318q2 8 -11.5 12t-29.5 4q-14 0 -26.5 -4t-14.5 -12q-11 -57 -22.5 -101t-20.5 -73
q-17 -60 -40.5 -104t-48.5 -72.5t-48 -42t-38 -13.5q-42 0 -42 51q0 14 3.5 37.5t18.5 73.5l73 261l-7 7l-149 -29l-5 -29q27 0 40 -6.5t13 -26.5q0 -10 -5.5 -35t-14 -57t-18 -66t-17.5 -61q-8 -26 -14.5 -49.5t-6.5 -49.5q0 -37 22 -61t60 -24q26 0 53.5 12t53 32.5
t47 47.5t34.5 57zM471 655q5 4 7 7t2 8q0 8 -11 8h-75l-119 -150l24 -7z" />
    <glyph glyph-name="udieresis" unicode="&#xfc;" horiz-adv-x="506" 
d="M315 139q-8 -27 -11 -47.5t-3 -41.5q0 -23 13 -40t39 -17q19 0 39.5 8t38.5 22t31.5 34t19.5 45l-23 8q-6 -27 -23 -40.5t-31 -13.5q-22 0 -22 23q0 11 3 28.5t7 34.5l83 318q2 8 -11.5 12t-29.5 4q-14 0 -26.5 -4t-14.5 -12q-11 -57 -22.5 -101t-20.5 -73
q-17 -60 -40.5 -104t-48.5 -72.5t-48 -42t-38 -13.5q-42 0 -42 51q0 14 3.5 37.5t18.5 73.5l73 261l-7 7l-149 -29l-5 -29q27 0 40 -6.5t13 -26.5q0 -10 -5.5 -35t-14 -57t-18 -66t-17.5 -61q-8 -26 -14.5 -49.5t-6.5 -49.5q0 -37 22 -61t60 -24q26 0 53.5 12t53 32.5
t47 47.5t34.5 57zM231 645q-21 0 -36 -15.5t-15 -37.5t15 -37.5t36 -15.5t36 15.5t15 37.5t-15 37.5t-36 15.5zM428 645q-21 0 -36 -15.5t-15 -37.5t15 -37.5t36 -15.5t36 15.5t15 37.5t-15 37.5t-36 15.5z" />
    <glyph glyph-name="yacute" unicode="&#xfd;" horiz-adv-x="391" 
d="M391 411q0 34 -18.5 52t-43.5 18q-20 0 -33 -13t-13 -33q0 -16 6 -24t12.5 -15t12.5 -15t6 -23q0 -16 -8 -50t-22 -74.5t-32.5 -82.5t-40.5 -75q2 41 -2 88.5t-14.5 98.5t-26.5 103.5t-39 101.5h-110l-2 -28q20 0 41.5 -35t39.5 -90t29.5 -121t11.5 -129q0 -43 -10.5 -79
t-26.5 -62t-35.5 -40.5t-37.5 -14.5q-23 0 -28 11.5t-4 24.5q-6 14 -26 14q-22 0 -35 -17t-13 -37t15.5 -37.5t51.5 -17.5q35 0 70 23t69.5 61t66.5 87t60.5 102t52 105.5t40.5 97.5t26.5 78t9.5 47zM382 655q5 4 7 7t2 8q0 8 -11 8h-75l-119 -150l24 -7z" />
    <glyph glyph-name="otilde" unicode="&#xf5;" horiz-adv-x="447" 
d="M303 484q-58 0 -109 -30t-89.5 -78t-61 -108.5t-22.5 -122.5q0 -33 7 -62t22 -50.5t39.5 -34t60.5 -12.5q66 0 118.5 35t90 87t57.5 111.5t20 108.5q0 33 -8 61.5t-24 49.5t-41 33t-60 12zM261 436q40 0 61 -36.5t21 -100.5q0 -56 -13 -105t-35 -85t-50 -57t-58 -21
q-41 0 -57.5 37.5t-16.5 103.5q0 53 11.5 100.5t31.5 84t47 58t58 21.5zM186 539q7 34 26.5 51t39.5 17q17 0 30 -11t26 -24t27 -24t33 -11q16 0 33 6.5t32.5 21.5t28.5 40.5t21 62.5h-24q-5 -29 -25 -49t-43 -20q-17 0 -30 11t-25.5 23.5t-27.5 23.5t-36 11q-39 0 -69 -37
t-42 -92h25z" />
    <glyph glyph-name="sterling" unicode="&#xa3;" horiz-adv-x="585" 
d="M159 91q-20 -30 -39.5 -41.5t-38.5 -11.5q-17 0 -25 8.5t-8 19.5q0 13 12 25t37 12q21 0 34.5 -3.5t27.5 -8.5zM412 648q47 0 62.5 -14t15.5 -39q0 -17 -4.5 -30t-4.5 -27q0 -21 14.5 -33t32.5 -12q23 0 43.5 20t20.5 65q0 111 -173 111q-46 0 -86.5 -14.5t-71 -42
t-48.5 -66.5t-18 -88q0 -47 4 -75t5 -47h-101l-7 -50h113q2 -12 2 -23v-21q0 -51 -9.5 -82.5t-19.5 -56.5q-20 7 -40 11t-43 4q-22 0 -39.5 -7.5t-29.5 -19.5t-18 -26.5t-6 -28.5q0 -23 15.5 -40.5t47.5 -17.5q33 0 64.5 22.5t55.5 57.5q19 -13 36.5 -29t37.5 -30
t44.5 -23.5t57.5 -9.5q69 0 108 43.5t56 123.5l-21 5q-16 -45 -46.5 -64t-69.5 -19q-37 0 -83.5 7t-97.5 32q14 17 27 40.5t23 49.5t16 52.5t6 49.5h111l7 50h-118q-3 45 -3 81q0 66 10 107t28 64t42 31.5t52 8.5z" />
    <glyph glyph-name="logicalnot" unicode="&#xac;" horiz-adv-x="576" 
d="M66 393h494l-41 -163h45l52 209h-539z" />
    <glyph glyph-name="Otilde" unicode="&#xd5;" horiz-adv-x="703" 
d="M313 594q29 27 66 42.5t73 15.5q53 0 87.5 -34.5t34.5 -109.5q0 -62 -12 -125.5t-33 -121t-51 -106.5t-66 -81q-26 -23 -59.5 -37t-65.5 -14q-23 0 -45 9t-38.5 29t-26.5 52t-10 77q0 54 9 110t27 109.5t45.5 101t64.5 83.5zM682 439q0 63 -18.5 110.5t-49.5 79.5t-72 48
t-86 16q-92 0 -176 -51q-48 -29 -89 -71t-71.5 -94.5t-47.5 -115t-17 -133.5q0 -65 19.5 -111.5t52 -76t74.5 -43.5t87 -14q44 0 87 12t80 35q54 32 96 79.5t71 102t44.5 113.5t15.5 114zM346 713q6 32 26.5 47.5t41.5 15.5q18 0 32 -10t28 -22.5t29.5 -22.5t36.5 -10
q17 0 34.5 6t33.5 20.5t29.5 38t20.5 58.5h-26q-5 -27 -25 -46t-45 -19q-18 0 -32 10t-28 22.5t-30 22.5t-39 10q-41 0 -72 -35t-42 -86h27z" />
    <glyph glyph-name="umacron" unicode="&#x16b;" horiz-adv-x="506" 
d="M315 139q-8 -27 -11 -47.5t-3 -41.5q0 -23 13 -40t39 -17q19 0 39.5 8t38.5 22t31.5 34t19.5 45l-23 8q-6 -27 -23 -40.5t-31 -13.5q-22 0 -22 23q0 11 3 28.5t7 34.5l83 318q2 8 -11.5 12t-29.5 4q-14 0 -26.5 -4t-14.5 -12q-11 -57 -22.5 -101t-20.5 -73
q-17 -60 -40.5 -104t-48.5 -72.5t-48 -42t-38 -13.5q-42 0 -42 51q0 14 3.5 37.5t18.5 73.5l73 261l-7 7l-149 -29l-5 -29q27 0 40 -6.5t13 -26.5q0 -10 -5.5 -35t-14 -57t-18 -66t-17.5 -61q-8 -26 -14.5 -49.5t-6.5 -49.5q0 -37 22 -61t60 -24q26 0 53.5 12t53 32.5
t47 47.5t34.5 57zM230 621l-13 -63h228l13 63h-228z" />
    <glyph glyph-name="Uogonek" unicode="&#x172;" horiz-adv-x="701" 
d="M682 552q8 30 19.5 49.5t23.5 30t23 14.5t17 4h10v28h-221v-28h17q33 0 48 -15t15 -46q0 -25 -9 -61l-73 -294q-12 -49 -37 -84.5t-56.5 -58.5t-68.5 -33.5t-73 -10.5q-31 0 -58.5 7.5t-48.5 23.5t-33.5 41t-12.5 59q0 28 7 56l82 330q13 52 26.5 69t36.5 17h30v28h-220
v-28h10q14 0 21 -6t7 -23q0 -19 -9 -57l-86 -346q-7 -27 -7 -53q0 -39 15 -70t40.5 -54t59.5 -37t72 -18q-35 -21 -52.5 -53t-17.5 -62t18.5 -51.5t59.5 -21.5q27 0 56.5 10t56.5 28l-7 17q-10 -5 -24.5 -8t-28.5 -3q-37 0 -54.5 17t-17.5 43q0 20 11 41.5t35 40.5
q50 0 100 16t93.5 48t77 79.5t49.5 111.5z" />
    <glyph glyph-name="Thorn" unicode="&#xde;" horiz-adv-x="584" 
d="M185 189q20 79 40.5 157.5t40.5 156.5q16 2 31.5 3.5t29.5 1.5q36 0 63 -10.5t45 -28.5t27 -42.5t9 -52.5q0 -35 -11 -69.5t-36.5 -61.5t-67 -44t-101.5 -17q-17 0 -35 2t-35 5zM277 547q2 5 3 8.5t2 8.5q7 26 13 42.5t13.5 26.5t16 13.5t19.5 3.5h10v28h-203v-28h10
q23 0 28 -17t-8 -69l-113 -450q-13 -52 -26 -69t-36 -17h-10v-28h200v28h-10q-23 0 -28 17t8 69l12 48q51 -16 106 -16q73 0 128 20t91.5 52t55 72.5t18.5 81.5q0 34 -13 65.5t-40 56t-69.5 39t-102.5 14.5h-75z" />
    <glyph glyph-name="thorn" unicode="&#xfe;" horiz-adv-x="494" 
d="M280 687q0 3 -3.5 5t-8.5 2q-3 0 -9 -2l-132 -21l-4 -28h13q44 0 33 -38q-5 -23 -14.5 -63.5t-19.5 -84t-18.5 -82t-13.5 -57.5q-6 -27 -15.5 -67t-20.5 -86t-22 -93t-21 -88t-17.5 -71.5t-10.5 -42.5q-5 -18 -16 -25t-31 -7v-28h203v28q-22 0 -35.5 1.5t-20.5 5t-9 9
t-2 13.5q0 16 6 47.5t17 83.5q8 -1 15.5 -1.5t16.5 -0.5q49 0 93.5 17.5t82.5 46.5t69 67.5t52.5 80t33.5 83.5t12 79q0 50 -24.5 82t-77.5 32q-34 0 -65 -13.5t-57 -36.5t-47.5 -53.5t-36.5 -63.5l-6 2q2 8 10 35.5t19.5 65.5t24.5 81.5t24.5 82t20.5 66.5t12 37zM118 36
l26 108q16 67 39 118t49 85.5t53 52.5t52 18q30 0 41.5 -24.5t11.5 -62.5q0 -45 -17 -97t-48.5 -96.5t-76 -74t-100.5 -29.5h-15t-15 2z" />
    <glyph glyph-name="onehalf" unicode="&#xbd;" horiz-adv-x="654" 
d="M275 337v25h-22q-16 0 -22 3.5t-6 14.5q0 5 1 11t3 14q18 71 31.5 121.5t22.5 83.5t14 49.5t6 19.5q0 4 -6 4q-3 0 -4 -1l-154 -79l8 -21l43 21q12 5 17 5q9 0 9 -11q0 -7 -3 -18l-43 -174q-6 -26 -15.5 -34.5t-32.5 -8.5h-27v-25h180zM305 14v-14h242l40 104l-21 3
q-9 -17 -16.5 -28t-16.5 -17t-19.5 -8.5t-24.5 -2.5h-84q60 33 99 60t61.5 51.5t31 48.5t8.5 51q0 42 -27.5 63.5t-69.5 21.5q-49 0 -83 -30.5t-45 -74.5l25 -4q11 34 31.5 50t45.5 16t41.5 -13.5t16.5 -44.5q0 -57 -59 -110t-176 -122zM653 678l-655 -678h60l655 678h-60z
" />
    <glyph glyph-name="onequarter" unicode="&#xbc;" horiz-adv-x="654" 
d="M365 115q15 19 33.5 41.5t39 45.5t40.5 45t38 40l-43 -172h-108zM530 115l31 125q6 24 10.5 41.5t8.5 31t7.5 25t6.5 23.5q-14 2 -31 2q-16 0 -23 -2q-62 -64 -121.5 -132t-116.5 -137l-2 -22h161l-17 -70h57l17 70h46l12 45h-46zM653 678l-655 -678h60l655 678h-60z
M275 337v25h-22q-16 0 -22 3.5t-6 14.5q0 5 1 11t3 14q18 71 31.5 121.5t22.5 83.5t14 49.5t6 19.5q0 4 -6 4q-3 0 -4 -1l-154 -79l8 -21l43 21q12 5 17 5q9 0 9 -11q0 -7 -3 -18l-43 -174q-6 -26 -15.5 -34.5t-32.5 -8.5h-27v-25h180z" />
    <glyph glyph-name="onesuperior" unicode="&#xb9;" horiz-adv-x="397" 
d="M346 337v25h-22q-16 0 -22 3.5t-6 14.5q0 5 1 11t3 14q18 71 31.5 121.5t22.5 83.5t14 49.5t6 19.5q0 4 -6 4q-3 0 -4 -1l-154 -79l8 -21l43 21q12 5 17 5q9 0 9 -11q0 -7 -3 -18l-43 -174q-6 -26 -15.5 -34.5t-32.5 -8.5h-27v-25h180z" />
    <glyph glyph-name="threequarters" unicode="&#xbe;" horiz-adv-x="654" 
d="M172 605q11 23 26 33.5t39 10.5q26 0 38.5 -13t12.5 -31q0 -32 -24.5 -53t-79.5 -32l-6 -24q54 0 74.5 -15.5t20.5 -49.5q0 -10 -5.5 -23t-16.5 -25t-26.5 -20t-36.5 -8q-16 0 -25 4.5t-14 12.5t-6.5 18.5t-1.5 23.5q-25 0 -39 -13.5t-14 -30.5q0 -19 18 -34.5t59 -15.5
q33 0 63 12.5t52.5 32t36 44t13.5 48.5q0 27 -17 48.5t-46 23.5q42 20 63 41.5t21 53.5q0 25 -20.5 44t-62.5 19q-48 0 -73.5 -22t-39.5 -51zM653 678l-655 -678h60l655 678h-60zM365 115q15 19 33.5 41.5t39 45.5t40.5 45t38 40l-43 -172h-108zM530 115l31 125
q6 24 10.5 41.5t8.5 31t7.5 25t6.5 23.5q-7 2 -15 2h-15h-14t-10 -2q-62 -64 -121.5 -132t-116.5 -137l-2 -22h161l-17 -70h57l17 70h46l12 45h-46z" />
    <glyph glyph-name="threesuperior" unicode="&#xb3;" horiz-adv-x="396" 
d="M207 605q11 23 26 33.5t39 10.5q26 0 38.5 -13t12.5 -31q0 -32 -24.5 -53t-79.5 -32l-6 -24q54 0 74.5 -15.5t20.5 -49.5q0 -10 -5.5 -23t-16.5 -25t-26.5 -20t-36.5 -8q-16 0 -25 4.5t-14 12.5t-6.5 18.5t-1.5 23.5q-25 0 -39 -13.5t-14 -30.5q0 -19 18 -34.5t59 -15.5
q33 0 63 12.5t52.5 32t36 44t13.5 48.5q0 27 -17 48.5t-46 23.5q42 20 63 41.5t21 53.5q0 25 -20.5 44t-62.5 19q-48 0 -73.5 -22t-39.5 -51z" />
    <glyph glyph-name="twosuperior" unicode="&#xb2;" horiz-adv-x="408" 
d="M94 354v-14h242l40 104l-21 3q-9 -17 -16.5 -28t-16.5 -17t-19.5 -8.5t-24.5 -2.5h-84q60 33 99 60t61.5 51.5t31 48.5t8.5 51q0 42 -27.5 63.5t-69.5 21.5q-49 0 -83 -30.5t-45 -74.5l25 -4q11 34 31.5 50t45.5 16t41.5 -13.5t16.5 -44.5q0 -57 -59 -110t-176 -122z" />
    <glyph glyph-name="Aring" unicode="&#xc5;" horiz-adv-x="624" 
d="M370 558q2 -29 6 -63t8 -63l20 -162h-215l107 165q11 16 22 34t21 35t18 31t13 23zM446 664q32 9 57.5 33.5t31.5 56.5q4 19 -0.5 36t-15 29.5t-26.5 20t-36 7.5q-19 0 -38.5 -7.5t-36 -20t-28 -29.5t-15.5 -36q-7 -32 8.5 -57t44.5 -33l-239 -365q-58 -90 -97 -143.5
t-63.5 -82t-39.5 -37t-25 -8.5v-28h245v28q-51 0 -70.5 8t-19.5 28q0 27 13.5 53t39.5 67l30 48h244l14 -123q1 -8 1.5 -14.5t0.5 -11.5q0 -32 -16.5 -43.5t-61.5 -11.5v-28h248v28q-19 0 -31 5t-21 31t-18.5 80t-24.5 151zM451 816q26 0 37 -18t5 -44q-5 -26 -24 -44.5
t-45 -18.5t-37 18.5t-6 44.5q6 26 25 44t45 18z" />
    <glyph glyph-name="Ntilde" unicode="&#xd1;" horiz-adv-x="707" 
d="M517 161q-5 22 -17.5 52t-26.5 64l-171 401h-174v-28h10q19 0 37 -11.5t18 -43.5q0 -15 -4 -31l-107 -430q-16 -62 -36 -84t-49 -22h-10v-28h237v28h-16q-48 0 -67 11t-19 40q0 22 9 56l80 320q12 50 19.5 80.5t10.5 47.5q5 -20 16.5 -52t26.5 -66l207 -469q2 -3 9 -3
q18 0 20 7l138 552q8 30 19.5 49.5t24.5 30t24.5 14.5t17.5 4h10v28h-217v-28h12q38 0 55 -11.5t17 -38.5q0 -9 -2 -20t-5 -25l-69 -275q-4 -16 -8.5 -33t-8 -33t-6.5 -30t-5 -23zM332 713q6 32 26.5 47.5t41.5 15.5q18 0 32 -10t28 -22.5t29.5 -22.5t36.5 -10q17 0 34.5 6
t33.5 20.5t29.5 38t20.5 58.5h-26q-5 -27 -25 -46t-45 -19q-18 0 -32 10t-28 22.5t-30 22.5t-39 10q-41 0 -72 -35t-42 -86h27z" />
    <glyph glyph-name="agrave" unicode="&#xe0;" horiz-adv-x="504" 
d="M384 444l-56 -200q-13 -47 -33 -82.5t-42.5 -59.5t-45 -36.5t-40.5 -12.5q-30 0 -44 25t-14 65q0 44 16.5 96.5t47.5 98.5t76 77t102 31h15q8 0 18 -2zM477 102l-23 8q-6 -28 -22.5 -42t-31.5 -14q-9 0 -15 6t-6 17q0 17 2 32t7 34q25 100 44.5 176t39.5 142q0 13 -13 13
q-23 0 -44.5 5t-52.5 5q-59 0 -120 -32t-111 -84.5t-81.5 -119.5t-31.5 -138q0 -57 23 -90.5t77 -33.5q31 0 61.5 13.5t58 37t50 55t36.5 67.5l6 -2q-20 -71 -20 -110q0 -26 13 -40t34 -14q16 0 35 8t36 22t30.5 34t18.5 45zM291 653l115 -132l23 7l-59 150h-69
q-16 0 -16 -11q0 -6 6 -14z" />
    <glyph glyph-name="atilde" unicode="&#xe3;" horiz-adv-x="504" 
d="M384 444l-56 -200q-13 -47 -33 -82.5t-42.5 -59.5t-45 -36.5t-40.5 -12.5q-30 0 -44 25t-14 65q0 44 16.5 96.5t47.5 98.5t76 77t102 31h15q8 0 18 -2zM477 102l-23 8q-6 -28 -22.5 -42t-31.5 -14q-9 0 -15 6t-6 17q0 17 2 32t7 34q25 100 44.5 176t39.5 142q0 13 -13 13
q-23 0 -44.5 5t-52.5 5q-59 0 -120 -32t-111 -84.5t-81.5 -119.5t-31.5 -138q0 -57 23 -90.5t77 -33.5q31 0 61.5 13.5t58 37t50 55t36.5 67.5l6 -2q-20 -71 -20 -110q0 -26 13 -40t34 -14q16 0 35 8t36 22t30.5 34t18.5 45zM220 539q7 34 26.5 51t39.5 17q17 0 30 -11
t26 -24t27 -24t33 -11q16 0 33 6.5t32.5 21.5t28.5 40.5t21 62.5h-24q-5 -29 -25 -49t-43 -20q-17 0 -30 11t-25.5 23.5t-27.5 23.5t-36 11q-39 0 -69 -37t-42 -92h25z" />
    <glyph glyph-name="aring" unicode="&#xe5;" horiz-adv-x="504" 
d="M384 444l-56 -200q-13 -47 -33 -82.5t-42.5 -59.5t-45 -36.5t-40.5 -12.5q-30 0 -44 25t-14 65q0 44 16.5 96.5t47.5 98.5t76 77t102 31h15q8 0 18 -2zM477 102l-23 8q-6 -28 -22.5 -42t-31.5 -14q-9 0 -15 6t-6 17q0 17 2 32t7 34q25 100 44.5 176t39.5 142q0 13 -13 13
q-23 0 -44.5 5t-52.5 5q-59 0 -120 -32t-111 -84.5t-81.5 -119.5t-31.5 -138q0 -57 23 -90.5t77 -33.5q31 0 61.5 13.5t58 37t50 55t36.5 67.5l6 -2q-20 -71 -20 -110q0 -26 13 -40t34 -14q16 0 35 8t36 22t30.5 34t18.5 45zM405 695q-19 0 -38.5 -7.5t-36 -20t-28 -29.5
t-15.5 -36q-8 -39 15.5 -65.5t62.5 -26.5q20 0 39 7t35.5 19.5t28 29.5t15.5 36t-0.5 36t-15 29.5t-26.5 20t-36 7.5zM398 664q26 0 35 -18t4 -44t-22 -43.5t-43 -17.5t-35 17.5t-4 43.5t22 44t43 18z" />
    <glyph glyph-name="egrave" unicode="&#xe8;" horiz-adv-x="404" 
d="M269 439q23 0 35.5 -12.5t12.5 -30.5q0 -14 -10 -33.5t-33.5 -37t-62.5 -29.5t-96 -12q13 41 31 70.5t39 48t42.5 27.5t41.5 9zM110 259q9 -1 18 -1h18q73 0 122.5 15t80 37t43.5 47.5t13 47.5q0 32 -21.5 55.5t-65.5 23.5q-48 0 -89 -16.5t-74 -44t-58 -63.5
t-41.5 -74.5t-25 -76.5t-8.5 -71q0 -39 11 -68t29 -48t42 -28t50 -9q27 0 54.5 9t52 27t43 43.5t27.5 58.5l-20 8q-18 -35 -50.5 -53.5t-64.5 -18.5q-19 0 -36.5 6.5t-30.5 20t-21 34.5t-8 50q0 30 3 51.5t7 37.5zM232 653l115 -132l23 7l-59 150h-69q-16 0 -16 -11
q0 -6 6 -14z" />
    <glyph glyph-name="ecircumflex" unicode="&#xea;" horiz-adv-x="404" 
d="M269 439q23 0 35.5 -12.5t12.5 -30.5q0 -14 -10 -33.5t-33.5 -37t-62.5 -29.5t-96 -12q13 41 31 70.5t39 48t42.5 27.5t41.5 9zM110 259q9 -1 18 -1h18q73 0 122.5 15t80 37t43.5 47.5t13 47.5q0 32 -21.5 55.5t-65.5 23.5q-48 0 -89 -16.5t-74 -44t-58 -63.5
t-41.5 -74.5t-25 -76.5t-8.5 -71q0 -39 11 -68t29 -48t42 -28t50 -9q27 0 54.5 9t52 27t43 43.5t27.5 58.5l-20 8q-18 -35 -50.5 -53.5t-64.5 -18.5q-19 0 -36.5 6.5t-30.5 20t-21 34.5t-8 50q0 30 3 51.5t7 37.5zM183 529l21 -4l115 86l86 -86l21 4l-54 137q-4 9 -13.5 13
t-20.5 4q-12 0 -23.5 -4.5t-19.5 -13.5z" />
    <glyph glyph-name="igrave" unicode="&#xec;" horiz-adv-x="262" 
d="M230 477l-7 7l-150 -28l-6 -29q27 0 39 -7t12 -24q0 -10 -6 -35.5t-14.5 -59t-18.5 -71.5t-18.5 -73.5t-14.5 -65t-6 -45.5q0 -29 14 -41t37 -12q18 0 38.5 7.5t38.5 22t32.5 34.5t20.5 45l-23 8q-7 -29 -23.5 -42.5t-30.5 -13.5q-19 0 -19 23q0 11 6 39t15.5 65
t21.5 79.5t23.5 83.5t22 76t16.5 57zM106 653l115 -132l23 7l-59 150h-69q-16 0 -16 -11q0 -6 6 -14z" />
    <glyph glyph-name="idieresis" unicode="&#xef;" horiz-adv-x="262" 
d="M230 477l-7 7l-150 -28l-6 -29q27 0 39 -7t12 -24q0 -10 -6 -35.5t-14.5 -59t-18.5 -71.5t-18.5 -73.5t-14.5 -65t-6 -45.5q0 -29 14 -41t37 -12q18 0 38.5 7.5t38.5 22t32.5 34.5t20.5 45l-23 8q-7 -29 -23.5 -42.5t-30.5 -13.5q-19 0 -19 23q0 11 6 39t15.5 65
t21.5 79.5t23.5 83.5t22 76t16.5 57zM93 645q-21 0 -36 -15.5t-15 -37.5t15 -37.5t36 -15.5t36 15.5t15 37.5t-15 37.5t-36 15.5zM290 645q-21 0 -36 -15.5t-15 -37.5t15 -37.5t36 -15.5t36 15.5t15 37.5t-15 37.5t-36 15.5z" />
    <glyph glyph-name="ntilde" unicode="&#xf1;" horiz-adv-x="518" 
d="M403 54q-11 0 -16 8t-5 21q0 12 3.5 27.5t8 30.5t9.5 29.5t9 25.5q9 26 19.5 54t19.5 54.5t15 49.5t6 38q0 43 -21.5 67.5t-58.5 24.5q-25 0 -54 -12t-57.5 -33.5t-55 -51t-47.5 -65.5q1 7 6 27.5t11 45t13 47.5t12 35l-7 7l-136 -28l-6 -29q27 0 39 -6.5t12 -26.5
q0 -8 -7 -37l-86 -344q0 -8 12.5 -11.5t27.5 -3.5q14 0 26.5 3.5t14.5 11.5q11 55 21 98t18 72q14 51 39 95t53.5 76t56.5 50t48 18q21 0 30 -11t9 -36q0 -22 -12 -60.5t-27 -83.5q-20 -60 -34 -109t-14 -77q0 -26 13 -39t42 -13q18 0 38 7.5t38 22t31.5 34.5t19.5 45l-23 8
q-7 -29 -23.5 -42.5t-30.5 -13.5zM220 539q7 34 26.5 51t39.5 17q17 0 30 -11t26 -24t27 -24t33 -11q16 0 33 6.5t32.5 21.5t28.5 40.5t21 62.5h-24q-5 -29 -25 -49t-43 -20q-17 0 -30 11t-25.5 23.5t-27.5 23.5t-36 11q-39 0 -69 -37t-42 -92h25z" />
    <glyph glyph-name="ograve" unicode="&#xf2;" horiz-adv-x="447" 
d="M303 484q-58 0 -109 -30t-89.5 -78t-61 -108.5t-22.5 -122.5q0 -33 7 -62t22 -50.5t39.5 -34t60.5 -12.5q66 0 118.5 35t90 87t57.5 111.5t20 108.5q0 33 -8 61.5t-24 49.5t-41 33t-60 12zM261 436q40 0 61 -36.5t21 -100.5q0 -56 -13 -105t-35 -85t-50 -57t-58 -21
q-41 0 -57.5 37.5t-16.5 103.5q0 53 11.5 100.5t31.5 84t47 58t58 21.5zM253 653l115 -132l23 7l-59 150h-69q-16 0 -16 -11q0 -6 6 -14z" />
    <glyph glyph-name="ugrave" unicode="&#xf9;" horiz-adv-x="506" 
d="M315 139q-8 -27 -11 -47.5t-3 -41.5q0 -23 13 -40t39 -17q19 0 39.5 8t38.5 22t31.5 34t19.5 45l-23 8q-6 -27 -23 -40.5t-31 -13.5q-22 0 -22 23q0 11 3 28.5t7 34.5l83 318q2 8 -11.5 12t-29.5 4q-14 0 -26.5 -4t-14.5 -12q-11 -57 -22.5 -101t-20.5 -73
q-17 -60 -40.5 -104t-48.5 -72.5t-48 -42t-38 -13.5q-42 0 -42 51q0 14 3.5 37.5t18.5 73.5l73 261l-7 7l-149 -29l-5 -29q27 0 40 -6.5t13 -26.5q0 -10 -5.5 -35t-14 -57t-18 -66t-17.5 -61q-8 -26 -14.5 -49.5t-6.5 -49.5q0 -37 22 -61t60 -24q26 0 53.5 12t53 32.5
t47 47.5t34.5 57zM242 653l115 -132l23 7l-59 150h-69q-16 0 -16 -11q0 -6 6 -14z" />
    <glyph glyph-name="ucircumflex" unicode="&#xfb;" horiz-adv-x="506" 
d="M315 139q-8 -27 -11 -47.5t-3 -41.5q0 -23 13 -40t39 -17q19 0 39.5 8t38.5 22t31.5 34t19.5 45l-23 8q-6 -27 -23 -40.5t-31 -13.5q-22 0 -22 23q0 11 3 28.5t7 34.5l83 318q2 8 -11.5 12t-29.5 4q-14 0 -26.5 -4t-14.5 -12q-11 -57 -22.5 -101t-20.5 -73
q-17 -60 -40.5 -104t-48.5 -72.5t-48 -42t-38 -13.5q-42 0 -42 51q0 14 3.5 37.5t18.5 73.5l73 261l-7 7l-149 -29l-5 -29q27 0 40 -6.5t13 -26.5q0 -10 -5.5 -35t-14 -57t-18 -66t-17.5 -61q-8 -26 -14.5 -49.5t-6.5 -49.5q0 -37 22 -61t60 -24q26 0 53.5 12t53 32.5
t47 47.5t34.5 57zM205 529l21 -4l115 86l86 -86l21 4l-54 137q-4 9 -13.5 13t-20.5 4q-12 0 -23.5 -4.5t-19.5 -13.5z" />
    <glyph glyph-name="cent" unicode="&#xa2;" horiz-adv-x="401" 
d="M124 106q28 -17 64 -17q32 0 63 11.5t58 32.5t47.5 50t30.5 65l-23 9q-8 -25 -22 -43.5t-31.5 -30.5t-36.5 -18t-37 -6q-42 0 -68 33l163 317q1 -6 1.5 -13.5t0.5 -15.5q0 -26 11.5 -38t28.5 -12q20 0 39 17.5t19 54.5q0 30 -14 50.5t-49 28.5l50 97h-37l-48 -93h-11
q-50 0 -96.5 -29t-82.5 -76t-57.5 -108t-21.5 -124q0 -41 9 -70t25 -49l-66 -129h37zM151 229q-6 21 -6 49q0 60 15 108.5t37 82.5t48 52.5t48 18.5q5 0 9 -0.5t8 -1.5z" />
    <glyph glyph-name="AE" unicode="&#xc6;" horiz-adv-x="968" 
d="M459 270h-203l169 165q26 25 53 53t47 49zM449 232l-29 -118q-13 -52 -26.5 -69t-36.5 -17h-10v-28h500l59 201h-28q-16 -44 -36.5 -75t-49.5 -50.5t-70 -28.5t-97 -9q-42 0 -66 4t-35 13t-11 23t5 35l54 217h80q35 0 54 -6t27 -18.5t7 -32.5t-8 -48h28l60 244h-28
q-9 -35 -21 -55.5t-28.5 -31t-36.5 -13.5t-45 -3h-80q17 68 35 135.5t37 137.5h121q97 0 130 -32.5t15 -104.5h28l40 176h-484v-28h10q18 0 25.5 -8.5t2.5 -36.5l-321 -306q-93 -88 -151.5 -141.5t-94 -82.5t-53 -38t-27.5 -9v-28h256v28q-25 0 -43 6t-22.5 21t9 40t50.5 62
l75 75h230z" />
    <glyph glyph-name="Oslash" unicode="&#xd8;" horiz-adv-x="703" 
d="M572 536q1 -7 1.5 -13.5t0.5 -14.5q0 -62 -12 -125.5t-33 -121t-51 -106.5t-66 -81q-26 -23 -59.5 -37t-65.5 -14q-35 0 -64.5 19.5t-43.5 62.5zM169 156q-1 8 -1.5 16.5t-0.5 17.5q0 54 9 110t27 109.5t45.5 101t64.5 83.5q29 27 66 42.5t73 15.5t64.5 -16t43.5 -51z
M124 43q33 -31 76 -45.5t88 -14.5q44 0 87 12t80 35q54 32 96 79.5t71 102t44.5 113.5t15.5 114q0 52 -12.5 93t-34.5 72l67 74h-57l-38 -42q-31 29 -70 43t-81 14q-92 0 -176 -51q-48 -29 -89 -71t-71.5 -94.5t-47.5 -115t-17 -133.5q0 -48 10.5 -85.5t30.5 -66.5l-69 -76
h57z" />
    <glyph glyph-name="yen" unicode="&#xa5;" horiz-adv-x="635" 
d="M271 165l-12 -51q-12 -52 -25 -69t-34 -17h-15v-28h198v28h-15q-21 0 -25.5 17t7.5 69l12 51h189l12 49h-190l16 70l43 52h165l12 49h-136l131 158q30 36 50 57t34.5 32t26.5 14.5t25 3.5v28h-197v-28q28 0 41.5 -11t8.5 -32q-2 -10 -9 -22t-18 -26l-188 -229l-94 244
q-12 28 -7 46q4 16 19 22.5t41 7.5v28h-227v-28q32 0 52.5 -33t40.5 -93l53 -139h-131l-12 -49h162l22 -58l-15 -64h-194l-12 -49h195z" />
    <glyph glyph-name="ordfeminine" unicode="&#xaa;" horiz-adv-x="365" 
d="M346 657l-39 -140q-9 -33 -23 -58t-30 -42t-31.5 -25.5t-28.5 -8.5q-21 0 -31 17.5t-10 45.5q0 30 11.5 67t33.5 69.5t53.5 54t71.5 21.5h10q6 0 13 -1zM411 417l-16 6q-5 -20 -16 -29.5t-22 -9.5q-6 0 -10.5 4t-4.5 12q0 22 7 46q17 70 30.5 123.5t27.5 99.5q0 9 -9 9
q-16 0 -31 3.5t-37 3.5q-41 0 -83.5 -22.5t-77.5 -59t-57 -83.5t-22 -97q0 -39 16 -63t54 -24q21 0 42.5 9.5t40.5 26t35 38.5t26 47l4 -1q-14 -50 -14 -77q0 -18 9 -28t24 -10q23 0 49.5 20.5t34.5 55.5z" />
    <glyph glyph-name="ordmasculine" unicode="&#xba;" horiz-adv-x="359" 
d="M311 689q-40 0 -76 -21t-63 -54.5t-42.5 -76t-15.5 -85.5q0 -24 5 -44.5t15.5 -35.5t27.5 -23.5t42 -8.5q46 0 83 24.5t63 61t40 78.5t14 76q0 46 -22 77.5t-71 31.5zM282 655q28 0 42.5 -25.5t14.5 -70.5q0 -39 -9 -73.5t-24.5 -59.5t-35 -39.5t-40.5 -14.5
q-29 0 -40.5 26.5t-11.5 71.5q0 37 8 70.5t22 59t33 40.5t41 15z" />
    <glyph glyph-name="ae" unicode="&#xe6;" horiz-adv-x="691" 
d="M440 422q-47 -40 -74.5 -91t-47.5 -113q-13 -41 -32 -72t-40 -51.5t-41.5 -31t-37.5 -10.5q-30 0 -44 25t-14 65q0 44 19 94t53 93.5t81.5 72t104.5 28.5q26 0 41 -2t32 -7zM479 449q-21 10 -45.5 15t-56.5 5q-59 0 -122.5 -29.5t-116 -79t-86.5 -114.5t-34 -136
q0 -57 23 -90.5t77 -33.5q27 0 54.5 10.5t53 29.5t47.5 44.5t38 55.5q2 -36 13 -63t28.5 -44t40.5 -25.5t48 -8.5q27 0 54.5 9t52 27t43 43.5t27.5 58.5l-20 8q-18 -35 -50.5 -53.5t-64.5 -18.5q-19 0 -36.5 6.5t-30.5 20t-21 34.5t-8 50q0 30 3 51.5t7 37.5q9 -1 18 -1h18
q73 0 122.5 15t80 37t43.5 47.5t13 47.5q0 32 -21.5 55.5t-65.5 23.5q-36 0 -67.5 -9t-58.5 -26zM556 439q23 0 35.5 -12.5t12.5 -30.5q0 -14 -10 -33.5t-33.5 -37t-62.5 -29.5t-96 -12q13 41 31 70.5t39 48t42.5 27.5t41.5 9z" />
    <glyph glyph-name="oslash" unicode="&#xf8;" horiz-adv-x="447" 
d="M408 433q-16 24 -42 37.5t-63 13.5q-58 0 -109 -30t-89.5 -78t-61 -108.5t-22.5 -122.5q0 -47 13 -82l-63 -63h44l34 34q15 -23 40 -35.5t61 -12.5q66 0 118.5 35t90 87t57.5 111.5t20 108.5q0 43 -13 76l64 64h-44zM342 324q1 -6 1 -12v-13q0 -56 -13 -105t-35 -85
t-50 -57t-58 -21q-29 0 -45 19t-23 53zM114 142q-1 8 -1 15v15q0 53 11.5 100.5t31.5 84t47 58t58 21.5q29 0 48 -19.5t27 -54.5z" />
    <glyph glyph-name="questiondown" unicode="&#xbf;" horiz-adv-x="454" 
d="M308 290q-1 -31 -22 -57.5t-52 -52t-66 -50.5t-65 -54t-50 -62.5t-20 -74.5q0 -73 47 -114t130 -41q49 0 88 15t66.5 39.5t42 56.5t14.5 66q0 35 -17 51t-41 16q-23 0 -41 -15t-18 -43q0 -13 3 -21.5t6.5 -16t6.5 -16.5t3 -23q0 -31 -25 -52.5t-76 -21.5t-72 26t-21 76
q0 36 15 68t37.5 61t49.5 57t50 57t38.5 60t16.5 66h-28zM347 357q26 0 45 18.5t19 44.5q0 27 -19 45.5t-45 18.5t-45 -18.5t-19 -45.5q0 -26 19 -44.5t45 -18.5z" />
    <glyph glyph-name="exclamdown" unicode="&#xa1;" horiz-adv-x="340" 
d="M43 -135q-8 -21 -6.5 -36.5t9.5 -25.5t20 -14.5t25 -4.5t27 4.5t27 14t22 25t12 37.5l52 424h-27zM245 356q26 0 45 18.5t19 44.5q0 27 -19 45.5t-45 18.5t-45 -18.5t-19 -45.5q0 -26 19 -44.5t45 -18.5z" />
    <glyph glyph-name="florin" unicode="&#x192;" horiz-adv-x="288" 
d="M-21 -151q-12 0 -16.5 9t-4.5 26q0 19 -10.5 28t-24.5 9q-25 0 -37 -16.5t-12 -37.5t15.5 -39t47.5 -18q47 0 78 19t51.5 50t33 70t22.5 80q14 57 28 112t27 104.5t24.5 92.5t20.5 74h98l10 56h-94q0 21 2 51.5t9 58t19.5 47t34.5 19.5q23 0 23 -33q0 -20 14 -32t31 -12
q19 0 34 15t15 44q0 12 -3.5 24t-12.5 21.5t-24.5 16t-39.5 6.5q-39 0 -67.5 -14t-50.5 -41t-38.5 -65.5t-30.5 -86.5q-6 -22 -28 -33.5t-51 -13.5l-6 -28h69l-104 -451q-8 -34 -14 -56t-11.5 -34.5t-12 -17t-14.5 -4.5z" />
    <glyph glyph-name="Agrave" unicode="&#xc0;" horiz-adv-x="624" 
d="M370 558q2 -29 6 -63t8 -63l20 -162h-215l107 165q11 16 22 34t21 35t18 31t13 23zM424 109q1 -8 1.5 -14.5t0.5 -11.5q0 -32 -16.5 -43.5t-61.5 -11.5v-28h248v28q-19 0 -31 5t-21 31t-18.5 80t-24.5 151l-58 391h-37l-253 -387q-58 -90 -97 -143.5t-63.5 -82t-39.5 -37
t-25 -8.5v-28h245v28q-51 0 -70.5 8t-19.5 28q0 27 13.5 53t39.5 67l30 48h244zM336 811l129 -109l23 7l-75 127h-69q-16 0 -16 -11q0 -8 8 -14z" />
    <glyph glyph-name="Atilde" unicode="&#xc3;" horiz-adv-x="624" 
d="M370 558q2 -29 6 -63t8 -63l20 -162h-215l107 165q11 16 22 34t21 35t18 31t13 23zM424 109q1 -8 1.5 -14.5t0.5 -11.5q0 -32 -16.5 -43.5t-61.5 -11.5v-28h248v28q-19 0 -31 5t-21 31t-18.5 80t-24.5 151l-58 391h-37l-253 -387q-58 -90 -97 -143.5t-63.5 -82t-39.5 -37
t-25 -8.5v-28h245v28q-51 0 -70.5 8t-19.5 28q0 27 13.5 53t39.5 67l30 48h244zM306 713q6 32 26.5 47.5t41.5 15.5q18 0 32 -10t28 -22.5t29.5 -22.5t36.5 -10q17 0 34.5 6t33.5 20.5t29.5 38t20.5 58.5h-26q-5 -27 -25 -46t-45 -19q-18 0 -32 10t-28 22.5t-30 22.5t-39 10
q-41 0 -72 -35t-42 -86h27z" />
    <glyph glyph-name="OE" unicode="&#x152;" horiz-adv-x="1009" 
d="M313 594q29 27 66 42.5t73 15.5q53 0 87.5 -34.5t34.5 -109.5q0 -62 -12 -125.5t-33 -121t-51 -106.5t-66 -81q-26 -23 -59.5 -37t-65.5 -14q-23 0 -45 9t-38.5 29t-26.5 52t-10 77q0 54 9 110t27 109.5t45.5 101t64.5 83.5zM389 0h499l59 201h-28q-16 -44 -37 -75
t-53.5 -50.5t-79.5 -28.5t-116 -9q-49 0 -78 8t-29 30q0 15 20.5 36.5t47.5 62.5q17 27 35 64.5t32 90.5h32q35 0 54 -6t27 -18.5t7 -32.5t-8 -48h28l60 244h-28q-9 -35 -21 -55.5t-28.5 -31t-36.5 -13.5t-45 -3h-34q6 38 6 73q0 69 -20 118.5t-54 81.5h215q97 0 130 -32.5
t15 -104.5h28l40 176h-489q-37 15 -83 15q-92 0 -176 -51q-48 -29 -89 -71t-71.5 -94.5t-47.5 -115t-17 -133.5q0 -65 19.5 -111.5t52 -76t74.5 -43.5t87 -14q50 0 101 17z" />
    <glyph glyph-name="oe" unicode="&#x153;" horiz-adv-x="709" 
d="M335 79q14 -48 48 -71t76 -23q27 0 54.5 9t52 27t43 43.5t27.5 58.5l-20 8q-18 -35 -50.5 -53.5t-64.5 -18.5q-19 0 -36.5 6.5t-30.5 20t-21 34.5t-8 50q0 30 3 51.5t7 37.5q9 -1 18 -1h18q73 0 122.5 15t80 37t43.5 47.5t13 47.5q0 32 -21.5 55.5t-65.5 23.5
q-62 0 -110.5 -25.5t-84.5 -66.5q-13 42 -43.5 67t-81.5 25q-58 0 -109 -30t-89.5 -78t-61 -108.5t-22.5 -122.5q0 -33 7 -62t22 -50.5t39.5 -34t60.5 -12.5q57 0 103.5 26t81.5 67zM261 436q40 0 61 -36.5t21 -100.5q0 -56 -13 -105t-35 -85t-50 -57t-58 -21
q-41 0 -57.5 37.5t-16.5 103.5q0 53 11.5 100.5t31.5 84t47 58t58 21.5zM574 439q23 0 35.5 -12.5t12.5 -30.5q0 -14 -10 -33.5t-33.5 -37t-62.5 -29.5t-96 -12q13 41 31 70.5t39 48t42.5 27.5t41.5 9z" />
    <glyph glyph-name="ydieresis" unicode="&#xff;" horiz-adv-x="391" 
d="M391 411q0 34 -18.5 52t-43.5 18q-20 0 -33 -13t-13 -33q0 -16 6 -24t12.5 -15t12.5 -15t6 -23q0 -16 -8 -50t-22 -74.5t-32.5 -82.5t-40.5 -75q2 41 -2 88.5t-14.5 98.5t-26.5 103.5t-39 101.5h-110l-2 -28q20 0 41.5 -35t39.5 -89.5t29.5 -121t11.5 -129.5
q0 -43 -10.5 -79t-26.5 -62t-35.5 -40.5t-37.5 -14.5q-23 0 -28 11.5t-4 24.5q-6 14 -26 14q-22 0 -35 -17t-13 -37t15.5 -37.5t51.5 -17.5q35 0 70 23t69.5 61t66.5 87t60.5 102t52 105.5t40.5 97.5t26.5 78t9.5 47zM143 645q-21 0 -36 -15.5t-15 -37.5t15 -37.5t36 -15.5
t36 15.5t15 37.5t-15 37.5t-36 15.5zM340 645q-21 0 -36 -15.5t-15 -37.5t15 -37.5t36 -15.5t36 15.5t15 37.5t-15 37.5t-36 15.5z" />
    <glyph glyph-name="Ydieresis" unicode="&#x178;" horiz-adv-x="628" 
d="M369 284l230 259q32 36 53.5 57t37 32t28.5 14.5t27 3.5v28h-211v-28q55 0 55 -32q0 -22 -31 -59l-201 -229l-101 244q-9 21 -9 35q0 40 66 41v28h-243v-28q35 0 56 -33t44 -93l100 -246l-41 -164q-13 -52 -26.5 -69t-36.5 -17h-16v-28h212v28h-16q-14 0 -21 6t-7 23
q0 20 9 57zM330 814q-21 0 -36 -15.5t-15 -37.5t15 -37.5t36 -15.5t36 15.5t15 37.5t-15 37.5t-36 15.5zM527 814q-21 0 -36 -15.5t-15 -37.5t15 -37.5t36 -15.5t36 15.5t15 37.5t-15 37.5t-36 15.5z" />
    <glyph glyph-name="Ecircumflex" unicode="&#xca;" horiz-adv-x="617" 
d="M230 366q17 68 35 135.5t37 137.5h121q80 0 116 -21t36 -69q0 -11 -2 -22.5t-5 -24.5h28l40 176h-484v-28h10q14 0 22 -5t8 -22q0 -9 -2.5 -22t-7.5 -32l-113 -455q-13 -52 -26.5 -69t-36.5 -17h-10v-28h500l59 201h-28q-16 -44 -36.5 -75t-49.5 -50.5t-70 -28.5t-97 -9
q-65 0 -88.5 10t-23.5 34q0 11 5 31l54 217h80q51 0 69.5 -12.5t18.5 -40.5q0 -11 -2 -23.5t-6 -28.5h28l60 244h-28q-9 -35 -21 -55.5t-28.5 -31t-36.5 -13.5t-45 -3h-80zM296 711l22 -3l116 74l93 -74l22 3l-62 118q-3 8 -13 11.5t-22 3.5t-24.5 -3.5t-19.5 -11.5z" />
    <glyph glyph-name="Egrave" unicode="&#xc8;" horiz-adv-x="617" 
d="M230 366q17 68 35 135.5t37 137.5h121q80 0 116 -21t36 -69q0 -11 -2 -22.5t-5 -24.5h28l40 176h-484v-28h10q14 0 22 -5t8 -22q0 -9 -2.5 -22t-7.5 -32l-113 -455q-13 -52 -26.5 -69t-36.5 -17h-10v-28h500l59 201h-28q-16 -44 -36.5 -75t-49.5 -50.5t-70 -28.5t-97 -9
q-65 0 -88.5 10t-23.5 34q0 11 5 31l54 217h80q51 0 69.5 -12.5t18.5 -40.5q0 -11 -2 -23.5t-6 -28.5h28l60 244h-28q-9 -35 -21 -55.5t-28.5 -31t-36.5 -13.5t-45 -3h-80zM336 811l129 -109l23 7l-75 127h-69q-16 0 -16 -11q0 -8 8 -14z" />
    <glyph glyph-name="Idieresis" unicode="&#xcf;" horiz-adv-x="324" 
d="M282 564q7 26 13 42.5t13.5 26.5t16 13.5t19.5 3.5h10v28h-203v-28h10q14 0 21.5 -6.5t7.5 -23.5q0 -18 -9 -56l-113 -450q-13 -52 -26 -69t-36 -17h-10v-28h200v28h-10q-14 0 -21.5 6.5t-7.5 23.5q0 19 9 56q29 113 57.5 225t58.5 225zM167 814q-21 0 -36 -15.5
t-15 -37.5t15 -37.5t36 -15.5t36 15.5t15 37.5t-15 37.5t-36 15.5zM364 814q-21 0 -36 -15.5t-15 -37.5t15 -37.5t36 -15.5t36 15.5t15 37.5t-15 37.5t-36 15.5z" />
    <glyph glyph-name="Igrave" unicode="&#xcc;" horiz-adv-x="324" 
d="M282 564q7 26 13 42.5t13.5 26.5t16 13.5t19.5 3.5h10v28h-203v-28h10q14 0 21.5 -6.5t7.5 -23.5q0 -18 -9 -56l-113 -450q-13 -52 -26 -69t-36 -17h-10v-28h200v28h-10q-14 0 -21.5 6.5t-7.5 23.5q0 19 9 56q29 113 57.5 225t58.5 225zM200 811l129 -109l23 7l-75 127
h-69q-16 0 -16 -11q0 -8 8 -14z" />
    <glyph glyph-name="Ograve" unicode="&#xd2;" horiz-adv-x="703" 
d="M313 594q29 27 66 42.5t73 15.5q53 0 87.5 -34.5t34.5 -109.5q0 -62 -12 -125.5t-33 -121t-51 -106.5t-66 -81q-26 -23 -59.5 -37t-65.5 -14q-23 0 -45 9t-38.5 29t-26.5 52t-10 77q0 54 9 110t27 109.5t45.5 101t64.5 83.5zM682 439q0 63 -18.5 110.5t-49.5 79.5t-72 48
t-86 16q-92 0 -176 -51q-48 -29 -89 -71t-71.5 -94.5t-47.5 -115t-17 -133.5q0 -65 19.5 -111.5t52 -76t74.5 -43.5t87 -14q44 0 87 12t80 35q54 32 96 79.5t71 102t44.5 113.5t15.5 114zM397 811l129 -109l23 7l-75 127h-69q-16 0 -16 -11q0 -8 8 -14z" />
    <glyph glyph-name="Ucircumflex" unicode="&#xdb;" horiz-adv-x="701" 
d="M682 552q8 30 19.5 49.5t23.5 30t23 14.5t17 4h10v28h-221v-28h17q33 0 48 -15t15 -46q0 -25 -9 -61l-73 -294q-12 -49 -37 -84.5t-56.5 -58.5t-68.5 -33.5t-73 -10.5q-31 0 -58.5 7.5t-48.5 23.5t-33.5 41t-12.5 59q0 28 7 56l82 330q13 52 26.5 69t36.5 17h30v28h-220
v-28h10q14 0 21 -6t7 -23q0 -19 -9 -57l-86 -346q-7 -27 -7 -53q0 -43 18.5 -76.5t49 -57t71 -35.5t83.5 -12q50 0 100 16t93.5 48t77 79.5t49.5 111.5zM329 711l22 -3l116 74l93 -74l22 3l-62 118q-3 8 -13 11.5t-22 3.5t-24.5 -3.5t-19.5 -11.5z" />
    <glyph glyph-name="Ugrave" unicode="&#xd9;" horiz-adv-x="701" 
d="M682 552q8 30 19.5 49.5t23.5 30t23 14.5t17 4h10v28h-221v-28h17q33 0 48 -15t15 -46q0 -25 -9 -61l-73 -294q-12 -49 -37 -84.5t-56.5 -58.5t-68.5 -33.5t-73 -10.5q-31 0 -58.5 7.5t-48.5 23.5t-33.5 41t-12.5 59q0 28 7 56l82 330q13 52 26.5 69t36.5 17h30v28h-220
v-28h10q14 0 21 -6t7 -23q0 -19 -9 -57l-86 -346q-7 -27 -7 -53q0 -43 18.5 -76.5t49 -57t71 -35.5t83.5 -12q50 0 100 16t93.5 48t77 79.5t49.5 111.5zM373 811l129 -109l23 7l-75 127h-69q-16 0 -16 -11q0 -8 8 -14z" />
    <glyph glyph-name="circumflex" unicode="&#x2c6;" horiz-adv-x="403" 
d="M192 529l21 -4l115 86l86 -86l21 4l-54 137q-4 9 -13.5 13t-20.5 4q-12 0 -23.5 -4.5t-19.5 -13.5z" />
    <glyph glyph-name="tilde" unicode="&#x2dc;" horiz-adv-x="455" 
d="M220 539q7 34 26.5 51t39.5 17q17 0 30 -11t26 -24t27 -24t33 -11q16 0 33 6.5t32.5 21.5t28.5 40.5t21 62.5h-24q-5 -29 -25 -49t-43 -20q-17 0 -30 11t-25.5 23.5t-27.5 23.5t-36 11q-39 0 -69 -37t-42 -92h25z" />
    <glyph glyph-name="macron" unicode="&#xaf;" horiz-adv-x="388" 
d="M212 621l-13 -63h228l13 63h-228z" />
    <glyph glyph-name="Eth" unicode="&#xd0;" horiz-adv-x="689" 
d="M233 373q17 66 34.5 131t34.5 131h58q111 0 160.5 -55.5t49.5 -168.5q0 -75 -18.5 -142.5t-57.5 -118.5t-99 -81t-142 -30q-48 0 -69 10.5t-21 35.5q0 14 4 29q13 53 26 104.5t27 103.5h143l11 51h-141zM121 322l-52 -208q-13 -52 -26.5 -69t-36.5 -17h-10v-28h250
q111 0 192 31t134.5 83.5t79.5 122.5t26 147q0 53 -14.5 105.5t-52 94.5t-102.5 68t-165 26h-192v-28h10q14 0 21 -6t7 -23q0 -19 -9 -57l-48 -191h-93l-11 -51h92z" />
    <glyph glyph-name="eth" unicode="&#xf0;" 
d="M394 295q0 -37 -14.5 -85t-41 -90.5t-62 -72t-77.5 -29.5q-36 0 -59 22t-23 70q0 22 5.5 50.5t17 59.5t28 60.5t38.5 52.5t49.5 37.5t59.5 14.5q38 0 58.5 -23.5t20.5 -66.5zM430 573l105 33l-7 44l-130 -41q-40 39 -93 61t-119 22l-9 -21q51 -5 90.5 -26.5t68.5 -55.5
l-127 -40l5 -44l149 46q25 -42 37.5 -89.5t14.5 -95.5l-4 -3q-16 38 -46.5 56t-68.5 18q-63 0 -110.5 -27t-79 -68t-47.5 -90t-16 -93q0 -36 10 -67t30.5 -54t51.5 -36.5t72 -13.5q46 0 85.5 16.5t72 44.5t57.5 65.5t42 78.5t26 84t9 82q0 60 -17.5 114.5t-51.5 99.5z" />
  </font>
</defs>
</svg>
